<?xml version="1.0" encoding="utf-8"?>
<svg xmlns="http://www.w3.org/2000/svg" width="26px" height="25px" viewBox="0 0 25 25" version="1.1">
  <g id="surface1" style="">
    <path style="stroke: none; fill-rule: nonzero; fill-opacity: 1; fill: rgb(0, 187, 0);" d="M 15.101562 0.0625 C 15.066406 0.101562 14.601562 0.652344 14.070312 1.296875 L 13.097656 2.460938 L 12.726562 2.449219 C 11.480469 2.421875 10.199219 2.664062 9.023438 3.15625 L 8.71875 3.28125 L 7.390625 2 C 6.664062 1.296875 6.046875 0.71875 6.019531 0.710938 C 5.96875 0.695312 5.917969 0.730469 5.917969 0.785156 C 5.917969 0.824219 6.042969 1.445312 6.484375 3.597656 L 6.683594 4.5625 L 6.617188 4.609375 C 6.433594 4.757812 6.070312 5.105469 5.792969 5.398438 C 5.148438 6.074219 4.65625 6.769531 4.203125 7.644531 L 4.082031 7.875 L 2.066406 7.878906 C 0.683594 7.882812 0.0429688 7.894531 0.0273438 7.90625 C -0.0195312 7.945312 -0.00390625 8 0.0859375 8.070312 C 0.128906 8.105469 0.855469 8.644531 1.699219 9.265625 C 2.542969 9.886719 3.242188 10.402344 3.25 10.410156 C 3.261719 10.421875 3.25 10.554688 3.226562 10.726562 C 3.152344 11.277344 3.136719 11.511719 3.136719 12.15625 C 3.136719 12.917969 3.1875 13.421875 3.320312 14.085938 C 3.34375 14.1875 3.355469 14.269531 3.355469 14.273438 C 3.351562 14.273438 2.644531 14.796875 1.777344 15.433594 C 0.914062 16.074219 0.167969 16.625 0.125 16.660156 C 0.0351562 16.734375 0.0234375 16.761719 0.0664062 16.8125 C 0.09375 16.855469 -0.0546875 16.847656 2.726562 16.949219 C 3.640625 16.984375 4.394531 17.011719 4.40625 17.015625 C 4.417969 17.019531 4.480469 17.121094 4.550781 17.234375 C 4.71875 17.523438 5.0625 18.011719 5.332031 18.34375 C 5.585938 18.660156 6.171875 19.269531 6.449219 19.507812 L 6.636719 19.671875 L 6.511719 20.03125 C 6.445312 20.226562 6.261719 20.769531 6.105469 21.230469 C 5.945312 21.695312 5.722656 22.351562 5.605469 22.695312 C 5.488281 23.039062 5.328125 23.515625 5.246094 23.753906 C 5.164062 23.992188 5.097656 24.203125 5.097656 24.21875 C 5.097656 24.261719 5.152344 24.296875 5.199219 24.285156 C 5.226562 24.28125 6.148438 23.582031 7.25 22.738281 L 9.257812 21.199219 L 9.585938 21.3125 C 10.414062 21.597656 11.3125 21.765625 12.1875 21.800781 L 12.507812 21.8125 L 13.425781 23.371094 C 13.933594 24.226562 14.359375 24.941406 14.375 24.960938 C 14.40625 25 14.460938 25.003906 14.492188 24.964844 C 14.503906 24.949219 14.527344 24.890625 14.539062 24.835938 C 14.554688 24.785156 14.734375 24.097656 14.941406 23.316406 C 15.148438 22.53125 15.351562 21.769531 15.390625 21.613281 L 15.460938 21.335938 L 15.695312 21.25 C 16.582031 20.933594 17.46875 20.441406 18.21875 19.855469 C 18.351562 19.75 18.472656 19.660156 18.488281 19.648438 C 18.507812 19.632812 19.035156 19.804688 20.335938 20.253906 C 21.339844 20.597656 22.175781 20.878906 22.195312 20.878906 C 22.210938 20.878906 22.238281 20.859375 22.25 20.832031 C 22.269531 20.789062 22.257812 20.761719 22.179688 20.617188 C 22.105469 20.484375 20.65625 17.910156 20.457031 17.5625 L 20.414062 17.476562 L 20.507812 17.320312 C 21.101562 16.378906 21.558594 15.21875 21.777344 14.117188 C 21.808594 13.960938 21.839844 13.832031 21.839844 13.832031 C 21.84375 13.828125 21.96875 13.78125 22.121094 13.726562 C 22.269531 13.667969 22.816406 13.460938 23.332031 13.269531 C 23.847656 13.074219 24.414062 12.859375 24.589844 12.792969 C 24.769531 12.726562 24.933594 12.660156 24.957031 12.644531 C 25.011719 12.605469 25.011719 12.546875 24.957031 12.507812 C 24.917969 12.480469 24.175781 12.160156 22.441406 11.417969 L 21.941406 11.203125 L 21.917969 10.992188 C 21.78125 9.765625 21.347656 8.414062 20.734375 7.320312 C 20.621094 7.121094 20.605469 7.085938 20.628906 7.050781 C 20.640625 7.027344 21.023438 6.402344 21.480469 5.660156 C 21.9375 4.914062 22.316406 4.289062 22.320312 4.269531 C 22.324219 4.25 22.320312 4.21875 22.304688 4.203125 C 22.257812 4.144531 22.429688 4.089844 20.296875 4.816406 C 19.679688 5.023438 19.167969 5.195312 19.15625 5.195312 C 19.144531 5.195312 19.0625 5.125 18.96875 5.039062 C 17.949219 4.082031 16.847656 3.40625 15.597656 2.96875 L 15.324219 2.871094 L 15.320312 2.613281 C 15.316406 2.472656 15.304688 1.835938 15.292969 1.203125 C 15.277344 0.152344 15.273438 0.046875 15.242188 0.0273438 C 15.191406 -0.015625 15.164062 -0.0078125 15.101562 0.0625 Z M 15.101562 0.0625 "/>
  </g>
</svg>