<?xml version="1.0" encoding="UTF-8" standalone="no"?>
<svg
   width="25px"
   height="25px"
   viewBox="0 0 25 25"
   version="1.1"
   id="svg86"
   sodipodi:docname="box.svg"
   inkscape:version="1.3.2 (091e20e, 2023-11-25, custom)"
   xmlns:inkscape="http://www.inkscape.org/namespaces/inkscape"
   xmlns:sodipodi="http://sodipodi.sourceforge.net/DTD/sodipodi-0.dtd"
   xmlns="http://www.w3.org/2000/svg"
   xmlns:svg="http://www.w3.org/2000/svg">
  <defs
     id="defs86" />
  <sodipodi:namedview
     id="namedview86"
     pagecolor="#ffffff"
     bordercolor="#000000"
     borderopacity="0.25"
     inkscape:showpageshadow="2"
     inkscape:pageopacity="0.0"
     inkscape:pagecheckerboard="0"
     inkscape:deskcolor="#d1d1d1"
     inkscape:zoom="9.7863579"
     inkscape:cx="21.049711"
     inkscape:cy="10.575947"
     inkscape:window-width="1920"
     inkscape:window-height="991"
     inkscape:window-x="-9"
     inkscape:window-y="-9"
     inkscape:window-maximized="1"
     inkscape:current-layer="surface1" />
  <g
     id="surface1">
    <path
       style="fill:none;stroke-width:0.3;stroke-linecap:butt;stroke-linejoin:miter;stroke:rgb(13.725491%,12.156863%,12.54902%);stroke-opacity:1;stroke-miterlimit:4;"
       d="M 0 24.96 L 0 488 C 3.52 499.44 13.52 509.12 24.96 512 L 487.04 512 C 498.48 509.12 509.44 498.64 512 487.04 L 512 24.96 C 509.44 13.6 498.96 3.36 488 0 L 24.96 0 C 13.2 2.88 2.88 13.12 0 24.96 M 490 84.96 C 485.28 88.32 474.96 83.52 468.96 84.96 C 463.04 86.48 454.56 84.32 448 84.96 C 441.44 85.68 433.92 84.72 427.04 84.96 C 420.08 85.28 412 84.88 404.96 84.96 C 398 85.12 391.04 84.96 384 84.96 C 376.96 85.04 370.08 84.96 363.04 84.96 C 355.92 85.04 348.16 84.96 340.96 84.96 C 333.92 85.04 327.12 84.96 320 84.96 C 312.88 85.04 306.16 84.96 299.04 84.96 C 291.84 84.96 284.16 84.96 276.96 84.96 C 269.84 84.96 263.12 84.96 256 84.96 C 248.88 84.96 242.16 84.96 235.04 84.96 C 227.84 84.96 220.16 84.96 212.96 84.96 C 205.84 84.96 199.12 84.96 192 84.96 C 184.88 84.96 178.16 84.96 171.04 84.96 C 163.84 84.96 156.16 84.96 148.96 84.96 C 141.84 84.96 135.12 84.96 128 84.96 C 120.88 84.96 114.08 84.96 107.04 84.96 C 99.84 84.96 92.08 84.96 84.96 84.96 C 77.92 84.96 71.04 84.96 64 84.96 C 56.96 84.96 50 84.96 43.04 84.96 C 36 84.96 29.04 84.96 22 84.96 C 20.72 73.28 21.36 58.4 20.96 47.04 C 20.64 35.6 19.36 22.4 32.96 20.96 C 40.72 20.24 48.16 21.36 56 20.96 C 63.84 20.64 72.08 21.12 80 20.96 C 87.92 20.88 96.08 21.04 104 20.96 C 111.92 20.96 120.08 21.04 128 20.96 C 135.92 20.96 143.12 21.04 151.04 20.96 C 158.88 20.96 167.04 21.04 175.04 20.96 C 182.96 20.96 191.04 20.96 199.04 20.96 C 206.96 20.96 215.12 20.96 223.04 20.96 C 230.88 20.96 238.08 20.96 246 20.96 C 253.92 20.96 262.08 20.96 270 20.96 C 277.92 20.96 286.08 20.96 294 20.96 C 301.92 20.96 310.08 20.96 318 20.96 C 325.92 20.96 334.08 20.96 342 20.96 C 349.92 20.96 357.12 20.96 364.96 20.96 C 372.88 21.04 381.12 20.96 388.96 20.96 C 396.88 21.04 405.12 20.96 412.96 20.96 C 420.88 21.04 429.28 20.88 436.96 20.96 C 444.72 21.12 452.48 20.8 460 20.96 C 467.52 21.2 476.16 20.08 483.04 22 C 489.92 23.84 491.92 31.68 491.04 38 C 490.08 44.32 492.48 56.16 491.04 62 C 489.52 67.84 494.56 81.84 490 84.96 M 20.96 404.96 C 17.68 400.32 22.48 390 20.96 384 C 19.52 378 21.68 369.6 20.96 363.04 C 20.32 356.4 21.28 348.88 20.96 342 C 20.72 335.12 21.12 327.04 20.96 320 C 20.88 312.96 21.04 306.08 20.96 299.04 C 20.96 291.92 21.04 285.12 20.96 278 C 20.96 270.88 20.96 263.12 20.96 256 C 20.96 248.88 20.96 242.08 20.96 235.04 C 21.04 227.92 20.96 221.04 20.96 214 C 21.04 206.96 20.88 200 20.96 192.96 C 21.12 186 20.72 177.92 20.96 171.04 C 21.28 164.08 20.24 156.64 20.96 150 C 21.76 143.36 19.36 135.04 20.96 128.96 C 22.64 122.96 17.6 111.84 20.96 107.04 C 23.6 103.28 36.88 106.48 42 106 C 47.12 105.52 59.68 105.28 64.96 106 C 70.32 106.72 83.44 102.64 85.92 108.08 C 88.4 113.6 84.96 123.36 86 130 C 87.04 136.64 85.52 145.84 86 152.96 C 86.48 160.16 85.76 168.56 86 176 C 86.24 183.44 85.92 191.52 86 199.04 C 86.08 206.48 85.92 213.44 86 220.96 C 86.08 228.56 86 236.4 86 244 C 86 251.6 86 259.44 86 267.04 C 86 274.56 86 282.48 86 290 C 86 297.52 86.08 304.48 86 312 C 85.92 319.52 86.16 327.52 86 335.04 C 85.84 342.48 86.32 350.64 86 358 C 85.68 365.36 86.64 374 86 380.96 C 85.36 388 87.52 396.72 86 403.04 C 84.48 409.28 71.44 405.6 66 406 C 60.56 406.4 48.24 406.72 43.04 406 C 37.76 405.28 23.76 408.88 20.96 404.96 M 283.04 107.04 C 278.72 117.28 264.96 123.2 258.24 132.24 C 251.52 141.36 240.88 148.56 233.28 157.28 C 225.6 165.92 216.32 173.76 208.24 182.24 C 200.16 190.8 191.04 199.28 182.72 207.76 C 174.48 216.16 166.08 224.4 157.76 232.72 C 149.44 241.12 141.2 249.44 132.72 257.76 C 124.32 266.08 115.84 275.2 107.04 283.04 C 106.72 268.88 107.36 250.8 107.04 236.96 C 106.64 223.2 104.64 207.2 114.72 198.72 C 124.8 190.32 128.96 183.76 137.76 175.76 C 146.56 167.76 152.56 160.56 160.72 152.72 C 168.96 144.96 175.76 137.44 183.76 129.76 C 191.76 122.08 198.72 114.08 207.04 107.04 C 213.28 104.08 224.72 106.16 232 106 C 239.28 105.84 251.2 104.88 258 106 C 264.8 107.12 278.64 102.48 283.04 107.04 M 491.04 107.04 C 493.92 139.68 490.24 173.12 491.04 206 C 491.76 238.88 491.84 272.08 491.04 304.96 C 490.16 337.92 494 372.16 491.04 404.96 C 486.16 410.08 474.32 404 467.04 406 C 459.68 408 450.4 404.32 442 406 C 433.6 407.68 423.84 406.08 426 396 C 428.16 385.92 425.04 380.16 426 371.04 C 426.96 361.84 425.6 353.76 426 344.96 C 426.4 336.16 425.76 328.56 426 320 C 426.24 311.44 425.92 303.52 426 295.04 C 426.08 286.48 426 277.52 426 268.96 C 426 260.48 426 252.56 426 244 C 426 235.44 426.08 226.56 426 218 C 425.92 209.44 426.24 201.6 426 192.96 C 425.76 184.4 426.48 176.8 426 168 C 425.52 159.2 426.96 151.2 426 142 C 425.04 132.8 428.32 127.04 426 116.96 C 423.68 106.96 432.16 103.92 440.96 106 C 449.84 108.08 458.48 103.76 466 106 C 473.52 108.24 485.92 101.76 491.04 107.04 M 176 107.04 C 153.52 130.32 130.32 153.52 107.04 176 C 107.04 152.96 107.04 130 107.04 107.04 C 130 107.04 152.96 107.04 176 107.04 M 107.04 388.96 C 103.68 383.12 108.32 372 107.04 364.96 C 105.6 358 107.44 347.2 107.04 340 C 106.56 332.8 106.8 322.64 107.04 316 C 107.2 309.36 114.8 307.04 118.24 302.24 C 121.68 297.44 126.48 294.64 130.24 290.24 C 134.08 285.84 138.8 282 142.72 277.76 C 146.72 273.52 150.72 269.92 154.72 265.76 C 158.8 261.6 163.2 257.36 167.28 253.28 C 171.28 249.12 175.2 245.36 179.28 241.28 C 183.36 237.12 187.68 232.88 191.76 228.72 C 195.84 224.64 199.68 220.8 203.76 216.72 C 207.84 212.64 212.16 208.32 216.24 204.24 C 220.32 200.16 224.16 196.32 228.24 192.24 C 232.32 188.16 236.64 183.84 240.72 179.76 C 244.88 175.68 248.64 171.84 252.72 167.76 C 256.88 163.68 261.12 159.28 265.28 155.28 C 269.44 151.2 273.04 147.2 277.28 143.28 C 281.52 139.36 285.36 134.48 289.76 130.72 C 294.16 127.04 296.88 122 301.76 118.72 C 306.64 115.52 308.64 107.84 315.04 107.04 C 321.44 106.24 331.92 106.72 339.04 107.04 C 346.08 107.28 357.04 105.6 364 107.04 C 370.96 108.4 383.04 103.6 388.96 107.04 C 389.92 107.52 381.2 116.56 378.24 119.28 C 375.28 121.92 368.96 128.64 365.28 132.24 C 361.52 135.84 356.32 141.28 352.24 145.28 C 348.16 149.2 343.44 154.08 339.28 158.24 C 335.04 162.4 330.48 167.04 326.24 171.28 C 322 175.44 318 179.52 313.76 183.76 C 309.44 188 305.04 192.48 300.72 196.72 C 296.48 201.04 292.08 205.44 287.76 209.76 C 283.44 214.08 279.04 218.4 274.72 222.72 C 270.4 227.04 266.08 231.44 261.76 235.76 C 257.44 240.08 253.04 244.48 248.72 248.72 C 244.48 253.04 240.56 256.96 236.24 261.28 C 232 265.52 227.52 269.92 223.28 274.24 C 218.96 278.56 214.56 282.96 210.24 287.28 C 205.92 291.52 201.52 295.92 197.28 300.24 C 192.96 304.56 188.48 308.96 184.24 313.28 C 180 317.52 176 321.52 171.76 325.76 C 167.52 330 162.88 334.56 158.72 338.72 C 154.56 342.96 149.76 347.68 145.76 351.76 C 141.76 355.84 136.32 361.04 132.72 364.72 C 129.2 368.48 122.4 374.8 119.76 377.76 C 117.12 380.72 107.52 389.92 107.04 388.96 M 122 404.96 C 126.4 394.56 140.4 388.48 147.28 379.28 C 154.08 370 164.96 362.64 172.72 353.76 C 180.56 344.88 190.56 336.48 198.72 327.76 C 206.96 319.04 215.84 310.88 224.24 302.24 C 232.72 293.6 241.76 284.8 250.24 276.24 C 258.8 267.68 267.2 259.28 275.76 250.72 C 284.32 242.24 293.12 233.2 301.76 224.72 C 310.4 216.32 318.48 207.52 327.28 199.28 C 336 191.04 344.32 181.04 353.28 173.28 C 362.16 165.44 369.44 154.64 378.72 147.76 C 388.08 140.88 394.48 126.4 404.96 122 C 409.44 126.24 405.04 139.36 406 146 C 406.96 152.64 406.24 164.96 406 172 C 405.76 179.04 407.6 191.6 406 198 C 404.4 204.4 396.56 206.16 393.28 211.28 C 389.92 216.4 384.08 219.52 380.24 224.24 C 376.4 228.96 371.36 232.8 367.28 237.28 C 363.12 241.76 358.48 245.84 354.24 250.24 C 350 254.64 345.52 258.88 341.28 263.28 C 336.96 267.6 332.56 271.92 328.24 276.24 C 323.92 280.56 319.52 284.96 315.28 289.28 C 310.96 293.6 306.56 297.92 302.24 302.24 C 297.92 306.56 294.08 310.48 289.76 314.72 C 285.44 319.04 281.12 323.44 276.72 327.76 C 272.4 332.08 268.08 336.48 263.76 340.72 C 259.36 345.04 255.2 349.52 250.72 353.76 C 246.32 358 242.24 362.64 237.76 366.72 C 233.28 370.88 229.44 375.84 224.72 379.76 C 220.08 383.68 216.88 389.44 211.76 392.72 C 206.64 396.08 204.88 403.6 198.72 405.76 C 192.64 407.92 179.92 405.68 172.96 406 C 166.08 406.32 153.6 407.04 147.04 406 C 140.4 404.96 126.24 409.44 122 404.96 M 404.96 228.96 C 407.52 247.52 401.68 268.72 404.96 287.04 C 408.32 305.28 396.4 314.8 384.72 325.76 C 373.12 336.72 366.24 344.4 355.28 355.28 C 344.24 366.08 337.36 372.8 326.24 384.24 C 315.12 395.68 306.4 408.16 288 404.96 C 269.6 401.76 247.68 407.36 228.96 404.96 C 287.2 346 346.08 287.12 404.96 228.96 M 406 335.04 C 406.8 345.04 404.96 352.72 406 363.04 C 407.04 373.28 404 379.84 406 391.04 C 408 402.08 403.44 408.16 392 406 C 380.56 403.84 374.48 407.12 364 406 C 353.52 404.88 345.28 406.8 335.04 406 C 356.88 381.68 381.68 356.8 406 335.04 M 491.04 427.04 C 491.76 435.36 490.8 444.72 491.04 452.96 C 491.2 461.28 491.2 470.96 491.04 479.04 C 490.8 487.04 484.8 491.12 476.96 491.04 C 469.2 490.88 459.28 491.04 451.04 491.04 C 442.72 490.96 433.44 491.04 424.96 491.04 C 416.48 490.96 407.6 491.04 399.04 491.04 C 390.4 490.96 381.6 491.04 372.96 491.04 C 364.4 490.96 355.68 491.04 347.04 491.04 C 338.32 491.04 329.68 491.04 320.96 491.04 C 312.32 491.04 303.68 491.04 295.04 491.04 C 286.32 491.04 277.68 491.04 268.96 491.04 C 260.32 491.04 251.68 491.04 243.04 491.04 C 234.32 491.04 225.68 491.04 216.96 491.04 C 208.32 491.04 199.68 491.04 191.04 491.04 C 182.32 491.04 173.68 490.96 164.96 491.04 C 156.32 491.04 147.6 490.96 139.04 491.04 C 130.4 491.04 121.6 490.96 112.96 491.04 C 104.48 491.04 95.44 490.88 87.04 491.04 C 78.56 491.12 69.12 490.8 60.96 491.04 C 52.88 491.2 42.56 490.56 35.04 491.04 C 27.44 491.44 20.64 486.4 21.04 478.96 C 21.36 471.52 19.6 460 20.96 452.96 C 22.4 446 17.28 431.68 22 427.04 C 26.8 422.16 39.76 427.52 47.04 426 C 54.24 424.48 64.96 426.72 72.96 426 C 81.04 425.28 90.64 426.32 99.04 426 C 107.36 425.68 116.4 426.16 124.96 426 C 133.6 425.84 142.32 426.08 151.04 426 C 159.68 425.92 169.28 426 178 426 C 186.72 426 195.28 426 204 426 C 212.72 426 221.28 426 230 426 C 238.72 426 247.28 426 256 426 C 264.72 426 273.28 426 282 426 C 290.72 426 299.28 426 308 426 C 316.72 426 326.24 426 335.04 426 C 343.76 426 352.32 425.92 360.96 426 C 369.68 426.08 378.48 425.84 387.04 426 C 395.52 426.16 404.64 425.68 412.96 426 C 421.36 426.32 431.04 425.28 439.04 426 C 447.04 426.72 457.84 424.4 464.96 426 C 472.16 427.6 486.24 422.08 491.04 427.04 Z M 491.04 427.04 "
       transform="matrix(0.0488281,0,0,0.0488281,0,0)"
       id="path1" />
    <path
       style="fill:none;stroke-width:0.3;stroke-linecap:butt;stroke-linejoin:miter;stroke:rgb(65.490198%,49.019608%,41.568628%);stroke-opacity:1;stroke-miterlimit:4;"
       d="M 490 84.96 C 490 81.68 490 78.32 490 75.04 C 441.6 74.32 391.2 75.92 343.04 75.04 C 294.88 74.08 243.36 76.8 196 75.04 C 148.64 73.2 102 83.44 60 64 C 59.52 61.68 62.56 60.96 63.04 59.04 C 56.56 71.36 36.88 59.12 44 47.04 C 37.6 40.08 34.24 30.32 32.96 20.96 C 19.36 22.4 20.64 35.6 20.96 47.04 C 21.36 58.4 20.72 73.28 20.96 84.96 C 29.04 84.96 36 84.96 43.04 84.96 C 50 84.96 56.96 84.96 64 84.96 C 71.04 84.96 77.92 84.96 84.96 84.96 C 92.08 84.96 99.84 84.96 107.04 84.96 C 114.08 84.96 120.88 84.96 128 84.96 C 135.12 84.96 141.84 84.96 148.96 84.96 C 156.16 84.96 163.84 84.96 171.04 84.96 C 178.16 84.96 184.88 84.96 192 84.96 C 199.12 84.96 205.84 84.96 212.96 84.96 C 220.16 84.96 227.84 84.96 235.04 84.96 C 242.16 84.96 248.88 84.96 256 84.96 C 263.12 84.96 269.84 84.96 276.96 84.96 C 284.16 84.96 291.84 84.96 299.04 84.96 C 306.16 84.96 312.88 85.04 320 84.96 C 327.12 84.96 333.92 85.04 340.96 84.96 C 348.16 84.96 355.92 85.04 363.04 84.96 C 370.08 84.96 376.96 85.04 384 84.96 C 391.04 84.96 398 85.12 404.96 84.96 C 412 84.88 420.08 85.28 427.04 84.96 C 433.92 84.72 441.44 85.68 448 84.96 C 454.56 84.32 463.04 86.48 468.96 84.96 C 474.96 83.52 485.28 88.32 490 84.96 Z M 490 84.96 "
       transform="matrix(0.0488281,0,0,0.0488281,0,0)"
       id="path2" />
    <path
       style="fill:none;stroke-width:0.3;stroke-linecap:butt;stroke-linejoin:miter;stroke:rgb(73.725492%,56.470591%,48.235294%);stroke-opacity:1;stroke-miterlimit:4;"
       d="M 44 47.04 C 50.96 35.2 67.68 47.28 63.04 59.04 C 62.56 60.96 59.52 61.68 60 64 C 102 83.44 148.64 73.2 196 75.04 C 243.36 76.8 294.88 74.08 343.04 75.04 C 391.2 75.92 441.6 74.32 490 75.04 C 490 78.32 490 81.68 490 84.96 C 494.56 81.84 489.52 67.84 491.04 62 C 492.48 56.16 490.08 44.32 491.04 38 C 491.92 31.68 489.92 23.84 483.04 22 C 476.16 20.08 467.52 21.2 460 20.96 C 452.48 20.8 444.72 21.12 436.96 20.96 C 429.28 20.88 420.88 21.04 412.96 20.96 C 405.12 20.96 396.88 21.04 388.96 20.96 C 381.12 20.96 372.88 21.04 364.96 20.96 C 357.12 20.96 349.92 20.96 342 20.96 C 334.08 20.96 325.92 20.96 318 20.96 C 310.08 20.96 301.92 20.96 294 20.96 C 286.08 20.96 277.92 20.96 270 20.96 C 262.08 20.96 253.92 20.96 246 20.96 C 238.08 20.96 230.88 20.96 223.04 20.96 C 215.12 20.96 206.96 20.96 199.04 20.96 C 191.04 20.96 182.96 20.96 175.04 20.96 C 167.04 21.04 158.88 20.96 151.04 20.96 C 143.12 21.04 135.92 20.96 128 20.96 C 120.08 21.04 111.92 20.96 104 20.96 C 96.08 21.04 87.92 20.88 80 20.96 C 72.08 21.12 63.84 20.64 56 20.96 C 48.16 21.36 40.72 20.24 32.96 20.96 C 34.24 30.32 37.6 40.08 44 47.04 M 152.96 43.04 C 165.6 46.08 159.12 68.24 146.32 63.68 C 133.52 59.12 138.8 39.44 152.96 43.04 M 260 43.04 C 272.4 46.8 265.92 68 252.8 63.2 C 239.68 58.4 246.24 38.8 260 43.04 M 367.04 43.04 C 379.28 46.72 371.6 69.12 358.96 63.04 C 346.24 57.04 353.44 38.88 367.04 43.04 M 463.04 43.04 C 475.28 46.72 467.6 69.12 454.96 63.04 C 442.24 57.04 449.44 38.88 463.04 43.04 Z M 463.04 43.04 "
       transform="matrix(0.0488281,0,0,0.0488281,0,0)"
       id="path3" />
    <path
       style="fill:none;stroke-width:0.3;stroke-linecap:butt;stroke-linejoin:miter;stroke:rgb(14.901961%,12.941177%,12.941177%);stroke-opacity:1;stroke-miterlimit:4;"
       d="M 44 47.04 C 36.88 59.12 56.56 71.36 63.04 59.04 C 67.68 47.28 50.96 35.2 44 47.04 Z M 44 47.04 "
       transform="matrix(0.0488281,0,0,0.0488281,0,0)"
       id="path4" />
    <path
       style="fill:none;stroke-width:0.3;stroke-linecap:butt;stroke-linejoin:miter;stroke:rgb(14.901961%,12.941177%,13.333334%);stroke-opacity:1;stroke-miterlimit:4;"
       d="M 152.96 43.04 C 138.8 39.44 133.52 59.12 146.32 63.68 C 159.12 68.24 165.6 46.08 152.96 43.04 Z M 152.96 43.04 "
       transform="matrix(0.0488281,0,0,0.0488281,0,0)"
       id="path5" />
    <path
       style="fill:none;stroke-width:0.3;stroke-linecap:butt;stroke-linejoin:miter;stroke:rgb(14.901961%,12.941177%,13.333334%);stroke-opacity:1;stroke-miterlimit:4;"
       d="M 260 43.04 C 246.24 38.8 239.68 58.4 252.8 63.2 C 265.92 68 272.4 46.8 260 43.04 Z M 260 43.04 "
       transform="matrix(0.0488281,0,0,0.0488281,0,0)"
       id="path6" />
    <path
       style="fill:none;stroke-width:0.3;stroke-linecap:butt;stroke-linejoin:miter;stroke:rgb(14.901961%,12.941177%,13.333334%);stroke-opacity:1;stroke-miterlimit:4;"
       d="M 367.04 43.04 C 353.44 38.88 346.24 57.04 358.96 63.04 C 371.6 69.12 379.28 46.72 367.04 43.04 Z M 367.04 43.04 "
       transform="matrix(0.0488281,0,0,0.0488281,0,0)"
       id="path7" />
    <path
       style="fill:none;stroke-width:0.3;stroke-linecap:butt;stroke-linejoin:miter;stroke:rgb(14.901961%,12.941177%,13.333334%);stroke-opacity:1;stroke-miterlimit:4;"
       d="M 463.04 43.04 C 449.44 38.88 442.24 57.04 454.96 63.04 C 467.6 69.12 475.28 46.72 463.04 43.04 Z M 463.04 43.04 "
       transform="matrix(0.0488281,0,0,0.0488281,0,0)"
       id="path8" />
    <path
       style="fill:none;stroke-width:0.3;stroke-linecap:butt;stroke-linejoin:miter;stroke:rgb(32.941177%,26.666668%,23.529412%);stroke-opacity:1;stroke-miterlimit:4;"
       d="M 20.96 107.04 C 24.64 107.04 28.32 107.04 32 107.04 C 49.68 107.04 67.36 107.04 84.96 107.04 C 84.96 202.64 84.96 298.32 84.96 394 C 84.96 397.68 84.96 401.36 84.96 404.96 C 63.68 404.96 42.32 404.96 20.96 404.96 C 23.76 408.88 37.76 405.28 43.04 406 C 48.24 406.72 60.56 406.4 66 406 C 71.44 405.6 84.48 409.28 86 403.04 C 87.52 396.72 85.36 388 86 380.96 C 86.64 374 85.68 365.36 86 358 C 86.32 350.64 85.84 342.48 86 335.04 C 86.16 327.52 85.92 319.52 86 312 C 86.08 304.48 86 297.52 86 290 C 86 282.48 86 274.56 86 267.04 C 86 259.44 86 251.6 86 244 C 86 236.4 86.08 228.56 86 220.96 C 85.92 213.44 86.08 206.48 86 199.04 C 85.92 191.52 86.24 183.44 86 176 C 85.76 168.56 86.48 160.16 86 152.96 C 85.52 145.84 87.04 136.64 86 130 C 84.96 123.36 88.4 113.6 85.92 108.08 C 83.44 102.64 70.32 106.72 64.96 106 C 59.68 105.28 47.12 105.52 42 106 C 36.88 106.48 23.6 103.28 20.96 107.04 Z M 20.96 107.04 "
       transform="matrix(0.0488281,0,0,0.0488281,0,0)"
       id="path9" />
    <path
       style="fill:none;stroke-width:0.3;stroke-linecap:butt;stroke-linejoin:miter;stroke:rgb(33.725491%,27.450982%,24.313726%);stroke-opacity:1;stroke-miterlimit:4;"
       d="M 207.04 107.04 C 214.32 104.32 224.16 108.16 232 107.04 C 239.84 105.84 248.96 107.44 256.96 107.04 C 265.12 106.56 273.84 107.04 282 107.04 C 282.48 107.04 283.04 107.04 283.04 107.04 C 278.64 102.48 264.8 107.12 258 106 C 251.2 104.88 239.28 105.84 232 106 C 224.72 106.16 213.28 104.08 207.04 107.04 Z M 207.04 107.04 "
       transform="matrix(0.0488281,0,0,0.0488281,0,0)"
       id="path10" />
    <path
       style="fill:none;stroke-width:0.3;stroke-linecap:butt;stroke-linejoin:miter;stroke:rgb(30.980393%,24.705882%,22.352941%);stroke-opacity:1;stroke-miterlimit:4;"
       d="M 491.04 404.96 C 491.04 405.04 490 404.96 490 404.96 C 468.96 404.96 448 404.96 427.04 404.96 C 427.04 305.68 427.04 206.32 427.04 107.04 C 430.32 107.04 433.68 107.04 436.96 107.04 C 454.64 107.04 472.32 107.04 490 107.04 C 490.48 107.04 491.04 107.04 491.04 107.04 C 485.92 101.76 473.52 108.24 466 106 C 458.48 103.76 449.84 108.08 440.96 106 C 432.16 103.92 423.68 106.96 426 116.96 C 428.32 127.04 425.04 132.8 426 142 C 426.96 151.2 425.52 159.2 426 168 C 426.48 176.8 425.76 184.4 426 192.96 C 426.24 201.6 425.92 209.44 426 218 C 426.08 226.56 426 235.44 426 244 C 426 252.56 426 260.48 426 268.96 C 426 277.52 426.08 286.48 426 295.04 C 425.92 303.52 426.24 311.44 426 320 C 425.76 328.56 426.4 336.16 426 344.96 C 425.6 353.76 426.96 361.84 426 371.04 C 425.04 380.16 428.16 385.92 426 396 C 423.84 406.08 433.6 407.68 442 406 C 450.4 404.32 459.68 408 467.04 406 C 474.32 404 486.16 410.08 491.04 404.96 Z M 491.04 404.96 "
       transform="matrix(0.0488281,0,0,0.0488281,0,0)"
       id="path11" />
    <path
       style="fill:none;stroke-width:0.3;stroke-linecap:butt;stroke-linejoin:miter;stroke:rgb(64.705884%,48.235294%,41.176471%);stroke-opacity:1;stroke-miterlimit:4;"
       d="M 20.96 404.96 C 42.32 404.96 63.68 404.96 84.96 404.96 C 84.96 401.36 84.96 397.68 84.96 394 C 71.04 391.76 56.64 382.88 48.96 372.96 C 45.68 368.72 42.24 367.76 43.04 360.96 C 42.48 361.92 42 363.36 40.96 364 C 24.64 325.6 33.84 282.72 32 240 C 30.16 197.28 33.36 150.16 32 107.04 C 28.32 107.04 24.64 107.04 20.96 107.04 C 17.6 111.84 22.64 122.96 20.96 128.96 C 19.36 135.04 21.76 143.36 20.96 150 C 20.24 156.64 21.28 164.08 20.96 171.04 C 20.72 177.92 21.12 186 20.96 192.96 C 20.88 200 21.04 206.96 20.96 214 C 20.96 221.04 21.04 227.92 20.96 235.04 C 20.96 242.08 20.96 248.88 20.96 256 C 20.96 263.12 20.96 270.88 20.96 278 C 21.04 285.12 20.96 291.92 20.96 299.04 C 21.04 306.08 20.88 312.96 20.96 320 C 21.12 327.04 20.72 335.12 20.96 342 C 21.28 348.88 20.32 356.4 20.96 363.04 C 21.68 369.6 19.52 378 20.96 384 C 22.48 390 17.68 400.32 20.96 404.96 Z M 20.96 404.96 "
       transform="matrix(0.0488281,0,0,0.0488281,0,0)"
       id="path12" />
    <path
       style="fill:none;stroke-width:0.3;stroke-linecap:butt;stroke-linejoin:miter;stroke:rgb(74.117649%,56.862748%,48.235294%);stroke-opacity:1;stroke-miterlimit:4;"
       d="M 43.04 360.96 C 44.08 351.92 56.72 348.32 62.24 356.72 C 67.76 365.12 59.12 376.08 48.96 372.96 C 56.64 382.88 71.04 391.76 84.96 394 C 84.96 298.32 84.96 202.64 84.96 107.04 C 67.36 107.04 49.68 107.04 32 107.04 C 33.36 150.16 30.16 197.28 32 240 C 33.84 282.72 24.64 325.6 40.96 364 C 42 363.36 42.48 361.92 43.04 360.96 M 56.96 139.04 C 69.6 142.08 63.12 164.24 50.32 159.68 C 37.52 155.12 42.8 135.52 56.96 139.04 M 56 244.96 C 68.48 247.44 64.8 269.84 51.36 266.64 C 37.92 263.52 42.32 242.32 56 244.96 Z M 56 244.96 "
       transform="matrix(0.0488281,0,0,0.0488281,0,0)"
       id="path13" />
    <path
       style="fill:none;stroke-width:0.3;stroke-linecap:butt;stroke-linejoin:miter;stroke:rgb(65.490198%,49.019608%,41.568628%);stroke-opacity:1;stroke-miterlimit:4;"
       d="M 176 107.04 C 152.96 107.04 130 107.04 107.04 107.04 C 107.04 130 107.04 152.96 107.04 176 C 130.32 153.52 153.52 130.32 176 107.04 Z M 176 107.04 "
       transform="matrix(0.0488281,0,0,0.0488281,0,0)"
       id="path14" />
    <path
       style="fill:none;stroke-width:0.3;stroke-linecap:butt;stroke-linejoin:miter;stroke:rgb(63.921571%,48.235294%,41.176471%);stroke-opacity:1;stroke-miterlimit:4;"
       d="M 283.04 107.04 C 283.04 107.04 282.48 107.04 282 107.04 C 267.36 127.92 244.08 142.88 227.28 162.24 C 210.4 181.6 189.84 198.4 172.24 217.28 C 154.64 236.08 135.12 253.84 116.96 272 C 115.92 252.88 118.4 227.44 116.96 208.96 C 115.6 190.56 132.88 183.52 143.28 171.28 C 153.6 159.04 164.8 150.8 175.28 139.28 C 185.68 127.68 197.04 118.64 207.04 107.04 C 198.72 114.08 191.76 122.08 183.76 129.76 C 175.76 137.44 168.96 144.96 160.72 152.72 C 152.56 160.56 146.56 167.76 137.76 175.76 C 128.96 183.76 124.8 190.32 114.72 198.72 C 104.64 207.2 106.64 223.2 107.04 236.96 C 107.36 250.8 106.72 268.88 107.04 283.04 C 115.84 275.2 124.32 266.08 132.72 257.76 C 141.2 249.44 149.44 241.12 157.76 232.72 C 166.08 224.4 174.48 216.16 182.72 207.76 C 191.04 199.28 200.16 190.8 208.24 182.24 C 216.32 173.76 225.6 165.92 233.28 157.28 C 240.88 148.56 251.52 141.36 258.24 132.24 C 264.96 123.2 278.72 117.28 283.04 107.04 Z M 283.04 107.04 "
       transform="matrix(0.0488281,0,0,0.0488281,0,0)"
       id="path15" />
    <path
       style="fill:none;stroke-width:0.3;stroke-linecap:butt;stroke-linejoin:miter;stroke:rgb(74.117649%,56.862748%,48.235294%);stroke-opacity:1;stroke-miterlimit:4;"
       d="M 282 107.04 C 273.84 107.04 265.12 106.56 256.96 107.04 C 248.96 107.44 239.84 105.84 232 107.04 C 224.16 108.16 214.32 104.32 207.04 107.04 C 197.04 118.64 185.68 127.68 175.28 139.28 C 164.8 150.8 153.6 159.04 143.28 171.28 C 132.88 183.52 115.6 190.56 116.96 208.96 C 118.4 227.44 115.92 252.88 116.96 272 C 135.12 253.84 154.64 236.08 172.24 217.28 C 189.84 198.4 210.4 181.6 227.28 162.24 C 244.08 142.88 267.36 127.92 282 107.04 Z M 282 107.04 "
       transform="matrix(0.0488281,0,0,0.0488281,0,0)"
       id="path16" />
    <path
       style="fill:none;stroke-width:0.3;stroke-linecap:butt;stroke-linejoin:miter;stroke:rgb(65.490198%,49.019608%,41.568628%);stroke-opacity:1;stroke-miterlimit:4;"
       d="M 107.04 388.96 C 201.36 295.52 295.52 201.28 388.96 107.04 C 383.04 103.6 370.96 108.4 364 107.04 C 357.04 105.6 346.08 107.28 339.04 107.04 C 331.92 106.72 321.44 106.24 315.04 107.04 C 308.64 107.84 306.64 115.52 301.76 118.72 C 296.88 122 294.16 127.04 289.76 130.72 C 285.36 134.48 281.52 139.36 277.28 143.28 C 273.04 147.2 269.44 151.2 265.28 155.28 C 261.12 159.28 256.88 163.68 252.72 167.76 C 248.64 171.84 244.88 175.68 240.72 179.76 C 236.64 183.84 232.32 188.16 228.24 192.24 C 224.16 196.32 220.32 200.16 216.24 204.24 C 212.16 208.32 207.84 212.64 203.76 216.72 C 199.68 220.8 195.84 224.64 191.76 228.72 C 187.68 232.88 183.36 237.12 179.28 241.28 C 175.2 245.36 171.28 249.12 167.28 253.28 C 163.2 257.36 158.8 261.6 154.72 265.76 C 150.72 269.92 146.72 273.52 142.72 277.76 C 138.8 282 134.08 285.84 130.24 290.24 C 126.48 294.64 121.68 297.44 118.24 302.24 C 114.8 307.04 107.2 309.36 107.04 316 C 106.8 322.64 106.56 332.8 107.04 340 C 107.44 347.2 105.6 358 107.04 364.96 C 108.32 372 103.68 383.12 107.04 388.96 Z M 107.04 388.96 "
       transform="matrix(0.0488281,0,0,0.0488281,0,0)"
       id="path17" />
    <path
       style="fill:none;stroke-width:0.3;stroke-linecap:butt;stroke-linejoin:miter;stroke:rgb(38.039216%,29.411766%,26.274511%);stroke-opacity:1;stroke-miterlimit:4;"
       d="M 107.04 388.96 C 107.52 389.92 117.12 380.72 119.76 377.76 C 122.4 374.8 129.2 368.48 132.72 364.72 C 136.32 361.04 141.76 355.84 145.76 351.76 C 149.76 347.68 154.56 342.96 158.72 338.72 C 162.88 334.56 167.52 330 171.76 325.76 C 176 321.52 180 317.52 184.24 313.28 C 188.48 308.96 192.96 304.56 197.28 300.24 C 201.52 295.92 205.92 291.52 210.24 287.28 C 214.56 282.96 218.96 278.56 223.28 274.24 C 227.52 269.92 232 265.52 236.24 261.28 C 240.56 256.96 244.48 253.04 248.72 248.72 C 253.04 244.48 257.44 240.08 261.76 235.76 C 266.08 231.44 270.4 227.04 274.72 222.72 C 279.04 218.4 283.44 214.08 287.76 209.76 C 292.08 205.44 296.48 201.04 300.72 196.72 C 305.04 192.48 309.44 188 313.76 183.76 C 318 179.52 322 175.44 326.24 171.28 C 330.48 167.04 335.04 162.4 339.28 158.24 C 343.44 154.08 348.16 149.2 352.24 145.28 C 356.32 141.28 361.52 135.84 365.28 132.24 C 368.96 128.64 375.28 121.92 378.24 119.28 C 381.2 116.56 389.92 107.52 388.96 107.04 C 295.52 201.28 201.36 295.52 107.04 388.96 Z M 107.04 388.96 "
       transform="matrix(0.0488281,0,0,0.0488281,0,0)"
       id="path18" />
    <path
       style="fill:none;stroke-width:0.3;stroke-linecap:butt;stroke-linejoin:miter;stroke:rgb(65.490198%,49.411765%,41.960785%);stroke-opacity:1;stroke-miterlimit:4;"
       d="M 490 404.96 C 489.68 401.04 490 396.96 490 392.96 C 475.84 392.88 462.4 382.48 455.04 372.96 C 452.88 370.32 450.08 368 448 364.96 C 432.16 341.92 437.6 315.6 436.96 287.04 C 436.4 258.4 437.28 226.24 436.96 196.96 C 436.72 167.76 437.2 136.48 436.96 107.04 C 433.68 107.04 430.32 107.04 427.04 107.04 C 427.04 206.32 427.04 305.68 427.04 404.96 C 448 404.96 468.96 404.96 490 404.96 Z M 490 404.96 "
       transform="matrix(0.0488281,0,0,0.0488281,0,0)"
       id="path19" />
    <path
       style="fill:none;stroke-width:0.3;stroke-linecap:butt;stroke-linejoin:miter;stroke:rgb(74.117649%,56.862748%,48.235294%);stroke-opacity:1;stroke-miterlimit:4;"
       d="M 448 364.96 C 446.32 355.52 458.72 347.04 466.24 354.8 C 473.68 362.48 466.16 376.4 455.04 372.96 C 462.4 382.48 475.84 392.88 490 392.96 C 490 361.36 489.52 329.68 490 298 C 490.48 266.32 488.72 234.72 490 203.04 C 491.28 171.36 487.12 138.56 490 107.04 C 472.32 107.04 454.64 107.04 436.96 107.04 C 437.2 136.48 436.72 167.76 436.96 196.96 C 437.28 226.24 436.4 258.4 436.96 287.04 C 437.6 315.6 432.16 341.92 448 364.96 M 463.04 139.04 C 475.28 142.72 467.6 165.12 454.96 159.04 C 442.24 153.04 449.44 134.88 463.04 139.04 M 460.96 244.96 C 474.08 247.52 469.68 269.84 456.32 266.64 C 443.04 263.52 447.68 242.4 460.96 244.96 Z M 460.96 244.96 "
       transform="matrix(0.0488281,0,0,0.0488281,0,0)"
       id="path20" />
    <path
       style="fill:none;stroke-width:0.3;stroke-linecap:butt;stroke-linejoin:miter;stroke:rgb(54.11765%,41.568628%,36.470589%);stroke-opacity:1;stroke-miterlimit:4;"
       d="M 490 392.96 C 490 396.96 489.68 401.04 490 404.96 C 490 404.96 491.04 405.04 491.04 404.96 C 494 372.16 490.16 337.92 491.04 304.96 C 491.84 272.08 491.76 238.88 491.04 206 C 490.24 173.12 493.92 139.68 491.04 107.04 C 491.04 107.04 490.48 107.04 490 107.04 C 487.12 138.56 491.28 171.36 490 203.04 C 488.72 234.72 490.48 266.32 490 298 C 489.52 329.68 490 361.36 490 392.96 Z M 490 392.96 "
       transform="matrix(0.0488281,0,0,0.0488281,0,0)"
       id="path21" />
    <path
       style="fill:none;stroke-width:0.3;stroke-linecap:butt;stroke-linejoin:miter;stroke:rgb(40.784314%,32.156864%,28.627452%);stroke-opacity:1;stroke-miterlimit:4;"
       d="M 122 404.96 C 122.24 405.28 123.04 404.96 123.04 404.96 C 125.76 401.12 129.76 398.24 132.96 395.04 C 151.04 376.96 168.4 358.56 186.72 340.72 C 205.12 322.96 222.88 304 241.28 286.24 C 259.68 268.48 277.12 249.2 295.76 231.76 C 314.4 214.32 331.04 193.92 350.24 177.28 C 369.44 160.56 384.32 137.44 404.96 123.04 C 404.96 122.48 404.96 122 404.96 122 C 394.48 126.4 388.08 140.88 378.72 147.76 C 369.44 154.64 362.16 165.44 353.28 173.28 C 344.32 181.04 336 191.04 327.28 199.28 C 318.48 207.52 310.4 216.32 301.76 224.72 C 293.12 233.2 284.32 242.24 275.76 250.72 C 267.2 259.28 258.8 267.68 250.24 276.24 C 241.76 284.8 232.72 293.6 224.24 302.24 C 215.84 310.88 206.96 319.04 198.72 327.76 C 190.56 336.48 180.56 344.88 172.72 353.76 C 164.96 362.64 154.08 370 147.28 379.28 C 140.4 388.48 126.4 394.56 122 404.96 Z M 122 404.96 "
       transform="matrix(0.0488281,0,0,0.0488281,0,0)"
       id="path22" />
    <path
       style="fill:none;stroke-width:0.3;stroke-linecap:butt;stroke-linejoin:miter;stroke:rgb(28.627452%,23.137255%,21.176471%);stroke-opacity:1;stroke-miterlimit:4;"
       d="M 404.96 123.04 C 404.96 142.48 404.88 170.4 404.96 188.96 C 405.12 207.68 386.64 214.4 376.24 227.28 C 365.84 240.08 353.52 248.88 342.72 260.72 C 332 272.64 320.72 282.24 309.76 293.76 C 298.8 305.2 287.28 315.92 276.24 327.28 C 265.28 338.56 253.76 349.52 242.72 360.72 C 231.76 372 220.56 382.4 209.76 393.76 C 202.08 400.96 198.88 406.4 188 404.96 C 177.12 403.6 166.88 405.52 156 404.96 C 145.12 404.48 133.92 404.96 123.04 404.96 C 123.04 404.96 122.24 405.28 122 404.96 C 126.24 409.44 140.4 404.96 147.04 406 C 153.6 407.04 166.08 406.32 172.96 406 C 179.92 405.68 192.64 407.92 198.72 405.76 C 204.88 403.6 206.64 396.08 211.76 392.72 C 216.88 389.44 220.08 383.68 224.72 379.76 C 229.44 375.84 233.28 370.88 237.76 366.72 C 242.24 362.64 246.32 358 250.72 353.76 C 255.2 349.52 259.36 345.04 263.76 340.72 C 268.08 336.48 272.4 332.08 276.72 327.76 C 281.12 323.44 285.44 319.04 289.76 314.72 C 294.08 310.48 297.92 306.56 302.24 302.24 C 306.56 297.92 310.96 293.6 315.28 289.28 C 319.52 284.96 323.92 280.56 328.24 276.24 C 332.56 271.92 336.96 267.6 341.28 263.28 C 345.52 258.88 350 254.64 354.24 250.24 C 358.48 245.84 363.12 241.76 367.28 237.28 C 371.36 232.8 376.4 228.96 380.24 224.24 C 384.08 219.52 389.92 216.4 393.28 211.28 C 396.56 206.16 404.4 204.4 406 198 C 407.6 191.6 405.76 179.04 406 172 C 406.24 164.96 406.96 152.64 406 146 C 405.04 139.36 409.44 126.24 404.96 122 C 404.96 122 404.96 122.48 404.96 123.04 Z M 404.96 123.04 "
       transform="matrix(0.0488281,0,0,0.0488281,0,0)"
       id="path23" />
    <path
       style="fill:none;stroke-width:0.3;stroke-linecap:butt;stroke-linejoin:miter;stroke:rgb(74.117649%,56.862748%,48.235294%);stroke-opacity:1;stroke-miterlimit:4;"
       d="M 132.96 395.04 C 144.56 391.52 159.28 397.68 171.04 395.04 C 182.72 392.32 198.08 399.04 208.96 394 C 220.56 382.4 231.76 372 242.72 360.72 C 253.76 349.52 265.28 338.56 276.24 327.28 C 287.28 315.92 298.8 305.2 309.76 293.76 C 320.72 282.24 332 272.64 342.72 260.72 C 353.52 248.88 365.84 240.08 376.24 227.28 C 386.64 214.4 405.12 207.68 404.96 188.96 C 404.88 170.4 404.96 142.48 404.96 123.04 C 384.32 137.44 369.44 160.56 350.24 177.28 C 331.04 193.92 314.4 214.32 295.76 231.76 C 277.12 249.2 259.68 268.48 241.28 286.24 C 222.88 304 205.12 322.96 186.72 340.72 C 168.4 358.56 151.04 376.96 132.96 395.04 Z M 132.96 395.04 "
       transform="matrix(0.0488281,0,0,0.0488281,0,0)"
       id="path24" />
    <path
       style="fill:none;stroke-width:0.3;stroke-linecap:butt;stroke-linejoin:miter;stroke:rgb(14.901961%,12.941177%,13.333334%);stroke-opacity:1;stroke-miterlimit:4;"
       d="M 56.96 139.04 C 42.8 135.52 37.52 155.12 50.32 159.68 C 63.12 164.24 69.6 142.08 56.96 139.04 Z M 56.96 139.04 "
       transform="matrix(0.0488281,0,0,0.0488281,0,0)"
       id="path25" />
    <path
       style="fill:none;stroke-width:0.3;stroke-linecap:butt;stroke-linejoin:miter;stroke:rgb(14.901961%,12.941177%,13.333334%);stroke-opacity:1;stroke-miterlimit:4;"
       d="M 463.04 139.04 C 449.44 134.88 442.24 153.04 454.96 159.04 C 467.6 165.12 475.28 142.72 463.04 139.04 Z M 463.04 139.04 "
       transform="matrix(0.0488281,0,0,0.0488281,0,0)"
       id="path26" />
    <path
       style="fill:none;stroke-width:0.3;stroke-linecap:butt;stroke-linejoin:miter;stroke:rgb(65.490198%,49.019608%,41.568628%);stroke-opacity:1;stroke-miterlimit:4;"
       d="M 404.96 228.96 C 346.08 287.12 287.2 346 228.96 404.96 C 247.68 407.36 269.6 401.76 288 404.96 C 306.4 408.16 315.12 395.68 326.24 384.24 C 337.36 372.8 344.24 366.08 355.28 355.28 C 366.24 344.4 373.12 336.72 384.72 325.76 C 396.4 314.8 408.32 305.28 404.96 287.04 C 401.68 268.72 407.52 247.52 404.96 228.96 Z M 404.96 228.96 "
       transform="matrix(0.0488281,0,0,0.0488281,0,0)"
       id="path27" />
    <path
       style="fill:none;stroke-width:0.3;stroke-linecap:butt;stroke-linejoin:miter;stroke:rgb(14.901961%,12.941177%,13.333334%);stroke-opacity:1;stroke-miterlimit:4;"
       d="M 56 244.96 C 42.32 242.32 37.92 263.52 51.36 266.64 C 64.8 269.84 68.48 247.44 56 244.96 Z M 56 244.96 "
       transform="matrix(0.0488281,0,0,0.0488281,0,0)"
       id="path28" />
    <path
       style="fill:none;stroke-width:0.3;stroke-linecap:butt;stroke-linejoin:miter;stroke:rgb(14.901961%,12.941177%,13.333334%);stroke-opacity:1;stroke-miterlimit:4;"
       d="M 460.96 244.96 C 447.68 242.4 443.04 263.52 456.32 266.64 C 469.68 269.84 474.08 247.52 460.96 244.96 Z M 460.96 244.96 "
       transform="matrix(0.0488281,0,0,0.0488281,0,0)"
       id="path29" />
    <path
       style="fill:none;stroke-width:0.3;stroke-linecap:butt;stroke-linejoin:miter;stroke:rgb(29.411766%,23.921569%,21.568628%);stroke-opacity:1;stroke-miterlimit:4;"
       d="M 406 335.04 C 381.68 356.8 356.88 381.68 335.04 406 C 345.28 406.8 353.52 404.88 364 406 C 374.48 407.12 380.56 403.84 392 406 C 403.44 408.16 408 402.08 406 391.04 C 404 379.84 407.04 373.28 406 363.04 C 404.96 352.72 406.8 345.04 406 335.04 M 404.96 395.04 C 404.96 398.32 404.96 401.68 404.96 404.96 C 382 404.96 359.04 404.96 336 404.96 C 339.2 401.04 343.04 397.12 347.04 394 C 366.24 374.72 385.04 354.48 404.96 336 C 404.96 355.68 404.96 375.36 404.96 395.04 Z M 404.96 395.04 "
       transform="matrix(0.0488281,0,0,0.0488281,0,0)"
       id="path30" />
    <path
       style="fill:none;stroke-width:0.3;stroke-linecap:butt;stroke-linejoin:miter;stroke:rgb(74.117649%,56.862748%,48.235294%);stroke-opacity:1;stroke-miterlimit:4;"
       d="M 347.04 394 C 365.44 396.32 385.84 394.32 404.96 395.04 C 404.96 375.36 404.96 355.68 404.96 336 C 385.04 354.48 366.24 374.72 347.04 394 Z M 347.04 394 "
       transform="matrix(0.0488281,0,0,0.0488281,0,0)"
       id="path31" />
    <path
       style="fill:none;stroke-width:0.3;stroke-linecap:butt;stroke-linejoin:miter;stroke:rgb(14.901961%,12.941177%,13.333334%);stroke-opacity:1;stroke-miterlimit:4;"
       d="M 43.04 360.96 C 42.24 367.76 45.68 368.72 48.96 372.96 C 59.12 376.08 67.76 365.12 62.24 356.72 C 56.72 348.32 44.08 351.92 43.04 360.96 Z M 43.04 360.96 "
       transform="matrix(0.0488281,0,0,0.0488281,0,0)"
       id="path32" />
    <path
       style="fill:none;stroke-width:0.3;stroke-linecap:butt;stroke-linejoin:miter;stroke:rgb(14.901961%,12.941177%,12.941177%);stroke-opacity:1;stroke-miterlimit:4;"
       d="M 448 364.96 C 450.08 368 452.88 370.32 455.04 372.96 C 466.16 376.4 473.68 362.48 466.24 354.8 C 458.72 347.04 446.32 355.52 448 364.96 Z M 448 364.96 "
       transform="matrix(0.0488281,0,0,0.0488281,0,0)"
       id="path33" />
    <path
       style="fill:none;stroke-width:0.3;stroke-linecap:butt;stroke-linejoin:miter;stroke:rgb(65.490198%,49.019608%,41.568628%);stroke-opacity:1;stroke-miterlimit:4;"
       d="M 132.96 395.04 C 129.76 398.24 125.76 401.12 123.04 404.96 C 133.92 404.96 145.12 404.48 156 404.96 C 166.88 405.52 177.12 403.6 188 404.96 C 198.88 406.4 202.08 400.96 208.96 394 C 198.08 399.04 182.72 392.32 171.04 395.04 C 159.28 397.68 144.56 391.52 132.96 395.04 Z M 132.96 395.04 "
       transform="matrix(0.0488281,0,0,0.0488281,0,0)"
       id="path34" />
    <path
       style="fill:none;stroke-width:0.3;stroke-linecap:butt;stroke-linejoin:miter;stroke:rgb(65.490198%,49.019608%,41.568628%);stroke-opacity:1;stroke-miterlimit:4;"
       d="M 404.96 395.04 C 385.84 394.32 365.44 396.32 347.04 394 C 343.04 397.12 339.2 401.04 336 404.96 C 359.04 404.96 382 404.96 404.96 404.96 C 404.96 401.68 404.96 398.32 404.96 395.04 Z M 404.96 395.04 "
       transform="matrix(0.0488281,0,0,0.0488281,0,0)"
       id="path35" />
    <path
       style="fill:none;stroke-width:0.3;stroke-linecap:butt;stroke-linejoin:miter;stroke:rgb(33.333334%,27.058825%,23.921569%);stroke-opacity:1;stroke-miterlimit:4;"
       d="M 22 427.04 C 23.76 425.76 30.8 427.04 32.96 427.04 C 185.36 427.04 337.68 427.04 490 427.04 C 490.48 427.04 491.04 427.04 491.04 427.04 C 486.24 422.08 472.16 427.6 464.96 426 C 457.84 424.4 447.04 426.72 439.04 426 C 431.04 425.28 421.36 426.32 412.96 426 C 404.64 425.68 395.52 426.16 387.04 426 C 378.48 425.84 369.68 426.08 360.96 426 C 352.32 425.92 343.76 426 335.04 426 C 326.24 426 316.72 426 308 426 C 299.28 426 290.72 426 282 426 C 273.28 426 264.72 426 256 426 C 247.28 426 238.72 426 230 426 C 221.28 426 212.72 426 204 426 C 195.28 426 186.72 426 178 426 C 169.28 426 159.68 425.92 151.04 426 C 142.32 426.08 133.6 425.84 124.96 426 C 116.4 426.16 107.36 425.68 99.04 426 C 90.64 426.32 81.04 425.28 72.96 426 C 64.96 426.72 54.24 424.48 47.04 426 C 39.76 427.52 26.8 422.16 22 427.04 Z M 22 427.04 "
       transform="matrix(0.0488281,0,0,0.0488281,0,0)"
       id="path36" />
    <path
       style="fill:none;stroke-width:0.3;stroke-linecap:butt;stroke-linejoin:miter;stroke:rgb(64.313728%,48.235294%,40.784314%);stroke-opacity:1;stroke-miterlimit:4;"
       d="M 491.04 427.04 C 491.04 427.04 490.48 427.04 490 427.04 C 488.4 444.48 491.2 462.4 490 480 C 453.44 479.76 416.48 480.32 380 480 C 343.52 479.68 305.2 480.56 268.96 480 C 232.8 479.44 193.44 481.12 158 480 C 122.56 478.88 88.24 487.04 59.04 468 C 55.2 467.36 48.8 470.72 45.76 466.24 C 42.72 461.76 41.6 457.92 44 452.96 C 43.52 450.24 39.04 444.56 37.2 441.76 C 35.44 438.96 35.2 428.64 32.96 427.04 C 30.8 427.04 23.76 425.76 22 427.04 C 17.28 431.68 22.4 446 20.96 452.96 C 19.6 460 21.36 471.52 21.04 478.96 C 20.64 486.4 27.44 491.44 35.04 491.04 C 42.56 490.56 52.88 491.2 60.96 491.04 C 69.12 490.8 78.56 491.12 87.04 491.04 C 95.44 490.88 104.48 491.04 112.96 491.04 C 121.6 490.96 130.4 491.04 139.04 491.04 C 147.6 490.96 156.32 491.04 164.96 491.04 C 173.68 490.96 182.32 491.04 191.04 491.04 C 199.68 491.04 208.32 491.04 216.96 491.04 C 225.68 491.04 234.32 491.04 243.04 491.04 C 251.68 491.04 260.32 491.04 268.96 491.04 C 277.68 491.04 286.32 491.04 295.04 491.04 C 303.68 491.04 312.32 491.04 320.96 491.04 C 329.68 491.04 338.32 491.04 347.04 491.04 C 355.68 491.04 364.4 490.96 372.96 491.04 C 381.6 491.04 390.4 490.96 399.04 491.04 C 407.6 491.04 416.48 490.96 424.96 491.04 C 433.44 491.04 442.72 490.96 451.04 491.04 C 459.28 491.04 469.2 490.88 476.96 491.04 C 484.8 491.12 490.8 487.04 491.04 479.04 C 491.2 470.96 491.2 461.28 491.04 452.96 C 490.8 444.72 491.76 435.36 491.04 427.04 Z M 491.04 427.04 "
       transform="matrix(0.0488281,0,0,0.0488281,0,0)"
       id="path37" />
    <path
       style="fill:none;stroke-width:0.3;stroke-linecap:butt;stroke-linejoin:miter;stroke:rgb(74.117649%,56.862748%,48.235294%);stroke-opacity:1;stroke-miterlimit:4;"
       d="M 44 452.96 C 51.84 437.2 74.8 460.16 59.04 468 C 88.24 487.04 122.56 478.88 158 480 C 193.44 481.12 232.8 479.44 268.96 480 C 305.2 480.56 343.52 479.68 380 480 C 416.48 480.32 453.44 479.76 490 480 C 491.2 462.4 488.4 444.48 490 427.04 C 337.68 427.04 185.36 427.04 32.96 427.04 C 35.2 428.64 35.44 438.96 37.2 441.76 C 39.04 444.56 43.52 450.24 44 452.96 M 152 448 C 164.88 450.56 160.56 472.4 147.04 468.96 C 133.44 465.6 138.56 445.36 152 448 M 259.04 448 C 272.32 450.8 266.4 473.28 252.96 468.96 C 239.6 464.72 245.68 445.2 259.04 448 M 366 448 C 378.88 450.72 372.64 473.84 359.36 468.64 C 346 463.52 353.12 445.28 366 448 M 462 448 C 474.88 450.72 468.64 473.84 455.36 468.64 C 442 463.52 449.12 445.28 462 448 Z M 462 448 "
       transform="matrix(0.0488281,0,0,0.0488281,0,0)"
       id="path38" />
    <path
       style="fill:none;stroke-width:0.3;stroke-linecap:butt;stroke-linejoin:miter;stroke:rgb(14.901961%,12.941177%,13.333334%);stroke-opacity:1;stroke-miterlimit:4;"
       d="M 44 452.96 C 41.6 457.92 42.72 461.76 45.76 466.24 C 48.8 470.72 55.2 467.36 59.04 468 C 74.8 460.16 51.84 437.2 44 452.96 Z M 44 452.96 "
       transform="matrix(0.0488281,0,0,0.0488281,0,0)"
       id="path39" />
    <path
       style="fill:none;stroke-width:0.3;stroke-linecap:butt;stroke-linejoin:miter;stroke:rgb(14.901961%,12.941177%,13.333334%);stroke-opacity:1;stroke-miterlimit:4;"
       d="M 152 448 C 138.56 445.36 133.44 465.6 147.04 468.96 C 160.56 472.4 164.88 450.56 152 448 Z M 152 448 "
       transform="matrix(0.0488281,0,0,0.0488281,0,0)"
       id="path40" />
    <path
       style="fill:none;stroke-width:0.3;stroke-linecap:butt;stroke-linejoin:miter;stroke:rgb(14.901961%,12.941177%,13.333334%);stroke-opacity:1;stroke-miterlimit:4;"
       d="M 259.04 448 C 245.68 445.2 239.6 464.72 252.96 468.96 C 266.4 473.28 272.32 450.8 259.04 448 Z M 259.04 448 "
       transform="matrix(0.0488281,0,0,0.0488281,0,0)"
       id="path41" />
    <path
       style="fill:none;stroke-width:0.3;stroke-linecap:butt;stroke-linejoin:miter;stroke:rgb(14.901961%,12.941177%,13.333334%);stroke-opacity:1;stroke-miterlimit:4;"
       d="M 366 448 C 353.12 445.28 346 463.52 359.36 468.64 C 372.64 473.84 378.88 450.72 366 448 Z M 366 448 "
       transform="matrix(0.0488281,0,0,0.0488281,0,0)"
       id="path42" />
    <path
       style="fill:none;stroke-width:0.3;stroke-linecap:butt;stroke-linejoin:miter;stroke:rgb(14.901961%,12.941177%,13.333334%);stroke-opacity:1;stroke-miterlimit:4;"
       d="M 462 448 C 449.12 445.28 442 463.52 455.36 468.64 C 468.64 473.84 474.88 450.72 462 448 Z M 462 448 "
       transform="matrix(0.0488281,0,0,0.0488281,0,0)"
       id="path43" />
    <path
       style=" stroke:none;fill-rule:nonzero;fill:rgb(13.725491%,12.156863%,12.54902%);fill-opacity:1;"
       d="M 0 1.21875 L 0 23.828125 C 0.171875 24.386719 0.660156 24.859375 1.21875 25 L 23.78125 25 C 24.339844 24.859375 24.875 24.347656 25 23.78125 L 25 1.21875 C 24.875 0.664062 24.363281 0.164062 23.828125 0 L 1.21875 0 C 0.644531 0.140625 0.140625 0.640625 0 1.21875 M 23.925781 4.148438 C 23.695312 4.3125 23.191406 4.078125 22.898438 4.148438 C 22.609375 4.222656 22.195312 4.117188 21.875 4.148438 C 21.554688 4.183594 21.1875 4.136719 20.851562 4.148438 C 20.511719 4.164062 20.117188 4.144531 19.773438 4.148438 C 19.433594 4.15625 19.09375 4.148438 18.75 4.148438 C 18.40625 4.152344 18.070312 4.148438 17.726562 4.148438 C 17.378906 4.152344 17 4.148438 16.648438 4.148438 C 16.304688 4.152344 15.972656 4.148438 15.625 4.148438 C 15.277344 4.152344 14.949219 4.148438 14.601562 4.148438 C 14.25 4.148438 13.875 4.148438 13.523438 4.148438 C 13.175781 4.148438 12.847656 4.148438 12.5 4.148438 C 12.152344 4.148438 11.824219 4.148438 11.476562 4.148438 C 11.125 4.148438 10.75 4.148438 10.398438 4.148438 C 10.050781 4.148438 9.722656 4.148438 9.375 4.148438 C 9.027344 4.148438 8.699219 4.148438 8.351562 4.148438 C 8 4.148438 7.625 4.148438 7.273438 4.148438 C 6.925781 4.148438 6.597656 4.148438 6.25 4.148438 C 5.902344 4.148438 5.570312 4.148438 5.226562 4.148438 C 4.875 4.148438 4.496094 4.148438 4.148438 4.148438 C 3.804688 4.148438 3.46875 4.148438 3.125 4.148438 C 2.78125 4.148438 2.441406 4.148438 2.101562 4.148438 C 1.757812 4.148438 1.417969 4.148438 1.074219 4.148438 C 1.011719 3.578125 1.042969 2.851562 1.023438 2.296875 C 1.007812 1.738281 0.945312 1.09375 1.609375 1.023438 C 1.988281 0.988281 2.351562 1.042969 2.734375 1.023438 C 3.117188 1.007812 3.519531 1.03125 3.90625 1.023438 C 4.292969 1.019531 4.691406 1.027344 5.078125 1.023438 C 5.464844 1.023438 5.863281 1.027344 6.25 1.023438 C 6.636719 1.023438 6.988281 1.027344 7.375 1.023438 C 7.757812 1.023438 8.15625 1.027344 8.546875 1.023438 C 8.933594 1.023438 9.328125 1.023438 9.71875 1.023438 C 10.105469 1.023438 10.503906 1.023438 10.890625 1.023438 C 11.273438 1.023438 11.625 1.023438 12.011719 1.023438 C 12.398438 1.023438 12.796875 1.023438 13.183594 1.023438 C 13.570312 1.023438 13.96875 1.023438 14.355469 1.023438 C 14.742188 1.023438 15.140625 1.023438 15.527344 1.023438 C 15.914062 1.023438 16.3125 1.023438 16.699219 1.023438 C 17.085938 1.023438 17.4375 1.023438 17.820312 1.023438 C 18.207031 1.027344 18.609375 1.023438 18.992188 1.023438 C 19.378906 1.027344 19.78125 1.023438 20.164062 1.023438 C 20.550781 1.027344 20.960938 1.019531 21.335938 1.023438 C 21.714844 1.03125 22.09375 1.015625 22.460938 1.023438 C 22.828125 1.035156 23.25 0.980469 23.585938 1.074219 C 23.921875 1.164062 24.019531 1.546875 23.976562 1.855469 C 23.929688 2.164062 24.046875 2.742188 23.976562 3.027344 C 23.902344 3.3125 24.148438 3.996094 23.925781 4.148438 M 1.023438 19.773438 C 0.863281 19.546875 1.097656 19.042969 1.023438 18.75 C 0.953125 18.457031 1.058594 18.046875 1.023438 17.726562 C 0.992188 17.402344 1.039062 17.035156 1.023438 16.699219 C 1.011719 16.363281 1.03125 15.96875 1.023438 15.625 C 1.019531 15.28125 1.027344 14.945312 1.023438 14.601562 C 1.023438 14.253906 1.027344 13.921875 1.023438 13.574219 C 1.023438 13.226562 1.023438 12.847656 1.023438 12.5 C 1.023438 12.152344 1.023438 11.820312 1.023438 11.476562 C 1.027344 11.128906 1.023438 10.792969 1.023438 10.449219 C 1.027344 10.105469 1.019531 9.765625 1.023438 9.421875 C 1.03125 9.082031 1.011719 8.6875 1.023438 8.351562 C 1.039062 8.011719 0.988281 7.648438 1.023438 7.324219 C 1.0625 7 0.945312 6.59375 1.023438 6.296875 C 1.105469 6.003906 0.859375 5.460938 1.023438 5.226562 C 1.152344 5.042969 1.800781 5.199219 2.050781 5.175781 C 2.300781 5.152344 2.914062 5.140625 3.171875 5.175781 C 3.433594 5.210938 4.074219 5.011719 4.195312 5.277344 C 4.316406 5.546875 4.148438 6.023438 4.199219 6.347656 C 4.25 6.671875 4.175781 7.121094 4.199219 7.46875 C 4.222656 7.820312 4.1875 8.230469 4.199219 8.59375 C 4.210938 8.957031 4.195312 9.351562 4.199219 9.71875 C 4.203125 10.082031 4.195312 10.421875 4.199219 10.789062 C 4.203125 11.160156 4.199219 11.542969 4.199219 11.914062 C 4.199219 12.285156 4.199219 12.667969 4.199219 13.039062 C 4.199219 13.40625 4.199219 13.792969 4.199219 14.160156 C 4.199219 14.527344 4.203125 14.867188 4.199219 15.234375 C 4.195312 15.601562 4.207031 15.992188 4.199219 16.359375 C 4.191406 16.722656 4.214844 17.121094 4.199219 17.480469 C 4.183594 17.839844 4.230469 18.261719 4.199219 18.601562 C 4.167969 18.945312 4.273438 19.371094 4.199219 19.679688 C 4.125 19.984375 3.488281 19.804688 3.222656 19.824219 C 2.957031 19.84375 2.355469 19.859375 2.101562 19.824219 C 1.84375 19.789062 1.160156 19.964844 1.023438 19.773438 M 13.820312 5.226562 C 13.609375 5.726562 12.9375 6.015625 12.609375 6.457031 C 12.28125 6.902344 11.761719 7.253906 11.390625 7.679688 C 11.015625 8.101562 10.5625 8.484375 10.167969 8.898438 C 9.773438 9.316406 9.328125 9.730469 8.921875 10.144531 C 8.519531 10.554688 8.109375 10.957031 7.703125 11.363281 C 7.296875 11.773438 6.894531 12.179688 6.480469 12.585938 C 6.070312 12.992188 5.65625 13.4375 5.226562 13.820312 C 5.210938 13.128906 5.242188 12.246094 5.226562 11.570312 C 5.207031 10.898438 5.109375 10.117188 5.601562 9.703125 C 6.09375 9.292969 6.296875 8.972656 6.726562 8.582031 C 7.15625 8.191406 7.449219 7.839844 7.847656 7.457031 C 8.25 7.078125 8.582031 6.710938 8.972656 6.335938 C 9.363281 5.960938 9.703125 5.570312 10.109375 5.226562 C 10.414062 5.082031 10.972656 5.183594 11.328125 5.175781 C 11.683594 5.167969 12.265625 5.121094 12.597656 5.175781 C 12.929688 5.230469 13.605469 5.003906 13.820312 5.226562 M 23.976562 5.226562 C 24.117188 6.820312 23.9375 8.453125 23.976562 10.058594 C 24.011719 11.664062 24.015625 13.285156 23.976562 14.890625 C 23.933594 16.5 24.121094 18.171875 23.976562 19.773438 C 23.738281 20.023438 23.160156 19.726562 22.804688 19.824219 C 22.445312 19.921875 21.992188 19.742188 21.582031 19.824219 C 21.171875 19.90625 20.695312 19.828125 20.800781 19.335938 C 20.90625 18.84375 20.753906 18.5625 20.800781 18.117188 C 20.847656 17.667969 20.78125 17.273438 20.800781 16.84375 C 20.820312 16.414062 20.789062 16.042969 20.800781 15.625 C 20.8125 15.207031 20.796875 14.820312 20.800781 14.40625 C 20.804688 13.988281 20.800781 13.550781 20.800781 13.132812 C 20.800781 12.71875 20.800781 12.332031 20.800781 11.914062 C 20.800781 11.496094 20.804688 11.0625 20.800781 10.644531 C 20.796875 10.226562 20.8125 9.84375 20.800781 9.421875 C 20.789062 9.003906 20.824219 8.632812 20.800781 8.203125 C 20.777344 7.773438 20.847656 7.382812 20.800781 6.933594 C 20.753906 6.484375 20.914062 6.203125 20.800781 5.710938 C 20.6875 5.222656 21.101562 5.074219 21.53125 5.175781 C 21.964844 5.277344 22.386719 5.066406 22.753906 5.175781 C 23.121094 5.285156 23.726562 4.96875 23.976562 5.226562 M 8.59375 5.226562 C 7.496094 6.363281 6.363281 7.496094 5.226562 8.59375 C 5.226562 7.46875 5.226562 6.347656 5.226562 5.226562 C 6.347656 5.226562 7.46875 5.226562 8.59375 5.226562 M 5.226562 18.992188 C 5.0625 18.707031 5.289062 18.164062 5.226562 17.820312 C 5.15625 17.480469 5.246094 16.953125 5.226562 16.601562 C 5.203125 16.25 5.214844 15.753906 5.226562 15.429688 C 5.234375 15.105469 5.605469 14.992188 5.773438 14.757812 C 5.941406 14.523438 6.175781 14.386719 6.359375 14.171875 C 6.546875 13.957031 6.777344 13.769531 6.96875 13.5625 C 7.164062 13.355469 7.359375 13.179688 7.554688 12.976562 C 7.753906 12.773438 7.96875 12.566406 8.167969 12.367188 C 8.363281 12.164062 8.554688 11.980469 8.753906 11.78125 C 8.953125 11.578125 9.164062 11.371094 9.363281 11.167969 C 9.5625 10.96875 9.75 10.78125 9.949219 10.582031 C 10.148438 10.382812 10.359375 10.171875 10.558594 9.972656 C 10.757812 9.773438 10.945312 9.585938 11.144531 9.386719 C 11.34375 9.1875 11.554688 8.976562 11.753906 8.777344 C 11.957031 8.578125 12.140625 8.390625 12.339844 8.191406 C 12.542969 7.992188 12.75 7.777344 12.953125 7.582031 C 13.15625 7.382812 13.332031 7.1875 13.539062 6.996094 C 13.746094 6.804688 13.933594 6.566406 14.148438 6.382812 C 14.363281 6.203125 14.496094 5.957031 14.734375 5.796875 C 14.972656 5.640625 15.070312 5.265625 15.382812 5.226562 C 15.695312 5.1875 16.207031 5.210938 16.554688 5.226562 C 16.898438 5.238281 17.433594 5.15625 17.773438 5.226562 C 18.113281 5.292969 18.703125 5.058594 18.992188 5.226562 C 19.039062 5.25 18.613281 5.691406 18.46875 5.824219 C 18.324219 5.953125 18.015625 6.28125 17.835938 6.457031 C 17.652344 6.632812 17.398438 6.898438 17.199219 7.09375 C 17 7.285156 16.769531 7.523438 16.566406 7.726562 C 16.359375 7.929688 16.136719 8.15625 15.929688 8.363281 C 15.722656 8.566406 15.527344 8.765625 15.320312 8.972656 C 15.109375 9.179688 14.894531 9.398438 14.683594 9.605469 C 14.476562 9.816406 14.261719 10.03125 14.050781 10.242188 C 13.839844 10.453125 13.625 10.664062 13.414062 10.875 C 13.203125 11.085938 12.992188 11.300781 12.78125 11.511719 C 12.570312 11.722656 12.355469 11.9375 12.144531 12.144531 C 11.9375 12.355469 11.746094 12.546875 11.535156 12.757812 C 11.328125 12.964844 11.109375 13.179688 10.902344 13.390625 C 10.691406 13.601562 10.476562 13.816406 10.265625 14.027344 C 10.054688 14.234375 9.839844 14.449219 9.632812 14.660156 C 9.421875 14.871094 9.203125 15.085938 8.996094 15.296875 C 8.789062 15.503906 8.59375 15.699219 8.386719 15.90625 C 8.179688 16.113281 7.953125 16.335938 7.75 16.539062 C 7.546875 16.746094 7.3125 16.976562 7.117188 17.175781 C 6.921875 17.375 6.65625 17.628906 6.480469 17.808594 C 6.308594 17.992188 5.976562 18.300781 5.847656 18.445312 C 5.71875 18.589844 5.25 19.039062 5.226562 18.992188 M 5.957031 19.773438 C 6.171875 19.265625 6.855469 18.96875 7.191406 18.519531 C 7.523438 18.066406 8.054688 17.707031 8.433594 17.273438 C 8.816406 16.839844 9.304688 16.429688 9.703125 16.003906 C 10.105469 15.578125 10.539062 15.179688 10.949219 14.757812 C 11.363281 14.335938 11.804688 13.90625 12.21875 13.488281 C 12.636719 13.070312 13.046875 12.660156 13.464844 12.242188 C 13.882812 11.828125 14.3125 11.386719 14.734375 10.972656 C 15.15625 10.5625 15.550781 10.132812 15.980469 9.730469 C 16.40625 9.328125 16.8125 8.839844 17.25 8.460938 C 17.683594 8.078125 18.039062 7.550781 18.492188 7.214844 C 18.949219 6.878906 19.261719 6.171875 19.773438 5.957031 C 19.992188 6.164062 19.777344 6.804688 19.824219 7.128906 C 19.871094 7.453125 19.835938 8.054688 19.824219 8.398438 C 19.8125 8.742188 19.902344 9.355469 19.824219 9.667969 C 19.746094 9.980469 19.363281 10.066406 19.203125 10.316406 C 19.039062 10.566406 18.753906 10.71875 18.566406 10.949219 C 18.378906 11.179688 18.132812 11.367188 17.933594 11.585938 C 17.730469 11.804688 17.503906 12.003906 17.296875 12.21875 C 17.089844 12.433594 16.871094 12.640625 16.664062 12.855469 C 16.453125 13.066406 16.238281 13.277344 16.027344 13.488281 C 15.816406 13.699219 15.601562 13.914062 15.394531 14.125 C 15.183594 14.335938 14.96875 14.546875 14.757812 14.757812 C 14.546875 14.96875 14.359375 15.160156 14.148438 15.367188 C 13.9375 15.578125 13.726562 15.792969 13.511719 16.003906 C 13.300781 16.214844 13.089844 16.429688 12.878906 16.636719 C 12.664062 16.847656 12.460938 17.066406 12.242188 17.273438 C 12.027344 17.480469 11.828125 17.707031 11.609375 17.90625 C 11.390625 18.109375 11.203125 18.351562 10.972656 18.542969 C 10.746094 18.734375 10.589844 19.015625 10.339844 19.175781 C 10.089844 19.339844 10.003906 19.707031 9.703125 19.8125 C 9.40625 19.917969 8.785156 19.808594 8.445312 19.824219 C 8.109375 19.839844 7.5 19.875 7.179688 19.824219 C 6.855469 19.773438 6.164062 19.992188 5.957031 19.773438 M 19.773438 11.179688 C 19.898438 12.085938 19.613281 13.121094 19.773438 14.015625 C 19.9375 14.90625 19.355469 15.371094 18.785156 15.90625 C 18.21875 16.441406 17.882812 16.816406 17.347656 17.347656 C 16.808594 17.875 16.472656 18.203125 15.929688 18.761719 C 15.386719 19.320312 14.960938 19.929688 14.0625 19.773438 C 13.164062 19.617188 12.09375 19.890625 11.179688 19.773438 C 14.023438 16.894531 16.898438 14.019531 19.773438 11.179688 M 19.824219 16.359375 C 19.863281 16.847656 19.773438 17.222656 19.824219 17.726562 C 19.875 18.226562 19.726562 18.546875 19.824219 19.09375 C 19.921875 19.632812 19.699219 19.929688 19.140625 19.824219 C 18.582031 19.71875 18.285156 19.878906 17.773438 19.824219 C 17.261719 19.769531 16.859375 19.863281 16.359375 19.824219 C 17.425781 18.636719 18.636719 17.421875 19.824219 16.359375 M 23.976562 20.851562 C 24.011719 21.257812 23.964844 21.714844 23.976562 22.117188 C 23.984375 22.523438 23.984375 22.996094 23.976562 23.390625 C 23.964844 23.78125 23.671875 23.980469 23.289062 23.976562 C 22.910156 23.96875 22.425781 23.976562 22.023438 23.976562 C 21.617188 23.972656 21.164062 23.976562 20.75 23.976562 C 20.335938 23.972656 19.902344 23.976562 19.484375 23.976562 C 19.0625 23.972656 18.632812 23.976562 18.210938 23.976562 C 17.792969 23.972656 17.367188 23.976562 16.945312 23.976562 C 16.519531 23.976562 16.097656 23.976562 15.671875 23.976562 C 15.25 23.976562 14.828125 23.976562 14.40625 23.976562 C 13.980469 23.976562 13.558594 23.976562 13.132812 23.976562 C 12.710938 23.976562 12.289062 23.976562 11.867188 23.976562 C 11.441406 23.976562 11.019531 23.976562 10.59375 23.976562 C 10.171875 23.976562 9.75 23.976562 9.328125 23.976562 C 8.902344 23.976562 8.480469 23.972656 8.054688 23.976562 C 7.632812 23.976562 7.207031 23.972656 6.789062 23.976562 C 6.367188 23.976562 5.9375 23.972656 5.515625 23.976562 C 5.101562 23.976562 4.660156 23.96875 4.25 23.976562 C 3.835938 23.980469 3.375 23.964844 2.976562 23.976562 C 2.582031 23.984375 2.078125 23.953125 1.710938 23.976562 C 1.339844 23.996094 1.007812 23.75 1.027344 23.386719 C 1.042969 23.023438 0.957031 22.460938 1.023438 22.117188 C 1.09375 21.777344 0.84375 21.078125 1.074219 20.851562 C 1.308594 20.613281 1.941406 20.875 2.296875 20.800781 C 2.648438 20.726562 3.171875 20.835938 3.5625 20.800781 C 3.957031 20.765625 4.425781 20.816406 4.835938 20.800781 C 5.242188 20.785156 5.683594 20.808594 6.101562 20.800781 C 6.523438 20.792969 6.949219 20.804688 7.375 20.800781 C 7.796875 20.796875 8.265625 20.800781 8.691406 20.800781 C 9.117188 20.800781 9.535156 20.800781 9.960938 20.800781 C 10.386719 20.800781 10.804688 20.800781 11.230469 20.800781 C 11.65625 20.800781 12.074219 20.800781 12.5 20.800781 C 12.925781 20.800781 13.34375 20.800781 13.769531 20.800781 C 14.195312 20.800781 14.613281 20.800781 15.039062 20.800781 C 15.464844 20.800781 15.929688 20.800781 16.359375 20.800781 C 16.785156 20.800781 17.203125 20.796875 17.625 20.800781 C 18.050781 20.804688 18.480469 20.792969 18.898438 20.800781 C 19.3125 20.808594 19.757812 20.785156 20.164062 20.800781 C 20.574219 20.816406 21.046875 20.765625 21.4375 20.800781 C 21.828125 20.835938 22.355469 20.722656 22.703125 20.800781 C 23.054688 20.878906 23.742188 20.609375 23.976562 20.851562 Z M 23.976562 20.851562 "
       id="path44" />
    <path
       style="stroke:none;fill-rule:nonzero;fill:#c9864a;fill-opacity:1;opacity:1"
       d="M 23.925781 4.148438 C 23.925781 3.988281 23.925781 3.824219 23.925781 3.664062 C 21.5625 3.628906 19.101562 3.707031 16.75 3.664062 C 14.398438 3.617188 11.882812 3.75 9.570312 3.664062 C 7.257812 3.574219 4.980469 4.074219 2.929688 3.125 C 2.90625 3.011719 3.054688 2.976562 3.078125 2.882812 C 2.761719 3.484375 1.800781 2.886719 2.148438 2.296875 C 1.835938 1.957031 1.671875 1.480469 1.609375 1.023438 C 0.945312 1.09375 1.007812 1.738281 1.023438 2.296875 C 1.042969 2.851562 1.011719 3.578125 1.023438 4.148438 C 1.417969 4.148438 1.757812 4.148438 2.101562 4.148438 C 2.441406 4.148438 2.78125 4.148438 3.125 4.148438 C 3.46875 4.148438 3.804688 4.148438 4.148438 4.148438 C 4.496094 4.148438 4.875 4.148438 5.226562 4.148438 C 5.570312 4.148438 5.902344 4.148438 6.25 4.148438 C 6.597656 4.148438 6.925781 4.148438 7.273438 4.148438 C 7.625 4.148438 8 4.148438 8.351562 4.148438 C 8.699219 4.148438 9.027344 4.148438 9.375 4.148438 C 9.722656 4.148438 10.050781 4.148438 10.398438 4.148438 C 10.75 4.148438 11.125 4.148438 11.476562 4.148438 C 11.824219 4.148438 12.152344 4.148438 12.5 4.148438 C 12.847656 4.148438 13.175781 4.148438 13.523438 4.148438 C 13.875 4.148438 14.25 4.148438 14.601562 4.148438 C 14.949219 4.148438 15.277344 4.152344 15.625 4.148438 C 15.972656 4.148438 16.304688 4.152344 16.648438 4.148438 C 17 4.148438 17.378906 4.152344 17.726562 4.148438 C 18.070312 4.148438 18.40625 4.152344 18.75 4.148438 C 19.09375 4.148438 19.433594 4.15625 19.773438 4.148438 C 20.117188 4.144531 20.511719 4.164062 20.851562 4.148438 C 21.1875 4.136719 21.554688 4.183594 21.875 4.148438 C 22.195312 4.117188 22.609375 4.222656 22.898438 4.148438 C 23.191406 4.078125 23.695312 4.3125 23.925781 4.148438 Z M 23.925781 4.148438 "
       id="path45" />
    <path
       style="stroke:none;fill-rule:nonzero;fill:#df9967;fill-opacity:1"
       d="M 2.148438 2.296875 C 2.488281 1.71875 3.304688 2.308594 3.078125 2.882812 C 3.054688 2.976562 2.90625 3.011719 2.929688 3.125 C 4.980469 4.074219 7.257812 3.574219 9.570312 3.664062 C 11.882812 3.75 14.398438 3.617188 16.75 3.664062 C 19.101562 3.707031 21.5625 3.628906 23.925781 3.664062 C 23.925781 3.824219 23.925781 3.988281 23.925781 4.148438 C 24.148438 3.996094 23.902344 3.3125 23.976562 3.027344 C 24.046875 2.742188 23.929688 2.164062 23.976562 1.855469 C 24.019531 1.546875 23.921875 1.164062 23.585938 1.074219 C 23.25 0.980469 22.828125 1.035156 22.460938 1.023438 C 22.09375 1.015625 21.714844 1.03125 21.335938 1.023438 C 20.960938 1.019531 20.550781 1.027344 20.164062 1.023438 C 19.78125 1.023438 19.378906 1.027344 18.992188 1.023438 C 18.609375 1.023438 18.207031 1.027344 17.820312 1.023438 C 17.4375 1.023438 17.085938 1.023438 16.699219 1.023438 C 16.3125 1.023438 15.914062 1.023438 15.527344 1.023438 C 15.140625 1.023438 14.742188 1.023438 14.355469 1.023438 C 13.96875 1.023438 13.570312 1.023438 13.183594 1.023438 C 12.796875 1.023438 12.398438 1.023438 12.011719 1.023438 C 11.625 1.023438 11.273438 1.023438 10.890625 1.023438 C 10.503906 1.023438 10.105469 1.023438 9.71875 1.023438 C 9.328125 1.023438 8.933594 1.023438 8.546875 1.023438 C 8.15625 1.027344 7.757812 1.023438 7.375 1.023438 C 6.988281 1.027344 6.636719 1.023438 6.25 1.023438 C 5.863281 1.027344 5.464844 1.023438 5.078125 1.023438 C 4.691406 1.027344 4.292969 1.019531 3.90625 1.023438 C 3.519531 1.03125 3.117188 1.007812 2.734375 1.023438 C 2.351562 1.042969 1.988281 0.988281 1.609375 1.023438 C 1.671875 1.480469 1.835938 1.957031 2.148438 2.296875 M 7.46875 2.101562 C 8.085938 2.25 7.769531 3.332031 7.144531 3.109375 C 6.519531 2.886719 6.777344 1.925781 7.46875 2.101562 M 12.695312 2.101562 C 13.300781 2.285156 12.984375 3.320312 12.34375 3.085938 C 11.703125 2.851562 12.023438 1.894531 12.695312 2.101562 M 17.921875 2.101562 C 18.519531 2.28125 18.144531 3.375 17.527344 3.078125 C 16.90625 2.785156 17.257812 1.898438 17.921875 2.101562 M 22.609375 2.101562 C 23.207031 2.28125 22.832031 3.375 22.214844 3.078125 C 21.59375 2.785156 21.945312 1.898438 22.609375 2.101562 Z M 22.609375 2.101562 "
       id="path46" />
    <path
       style=" stroke:none;fill-rule:nonzero;fill:rgb(14.901961%,12.941177%,12.941177%);fill-opacity:1;"
       d="M 2.148438 2.296875 C 1.800781 2.886719 2.761719 3.484375 3.078125 2.882812 C 3.304688 2.308594 2.488281 1.71875 2.148438 2.296875 Z M 2.148438 2.296875 "
       id="path47" />
    <path
       style=" stroke:none;fill-rule:nonzero;fill:rgb(14.901961%,12.941177%,13.333334%);fill-opacity:1;"
       d="M 7.46875 2.101562 C 6.777344 1.925781 6.519531 2.886719 7.144531 3.109375 C 7.769531 3.332031 8.085938 2.25 7.46875 2.101562 Z M 7.46875 2.101562 "
       id="path48" />
    <path
       style=" stroke:none;fill-rule:nonzero;fill:rgb(14.901961%,12.941177%,13.333334%);fill-opacity:1;"
       d="M 12.695312 2.101562 C 12.023438 1.894531 11.703125 2.851562 12.34375 3.085938 C 12.984375 3.320312 13.300781 2.285156 12.695312 2.101562 Z M 12.695312 2.101562 "
       id="path49" />
    <path
       style=" stroke:none;fill-rule:nonzero;fill:rgb(14.901961%,12.941177%,13.333334%);fill-opacity:1;"
       d="M 17.921875 2.101562 C 17.257812 1.898438 16.90625 2.785156 17.527344 3.078125 C 18.144531 3.375 18.519531 2.28125 17.921875 2.101562 Z M 17.921875 2.101562 "
       id="path50" />
    <path
       style=" stroke:none;fill-rule:nonzero;fill:rgb(14.901961%,12.941177%,13.333334%);fill-opacity:1;"
       d="M 22.609375 2.101562 C 21.945312 1.898438 21.59375 2.785156 22.214844 3.078125 C 22.832031 3.375 23.207031 2.28125 22.609375 2.101562 Z M 22.609375 2.101562 "
       id="path51" />
    <path
       style=" stroke:none;fill-rule:nonzero;fill:rgb(32.941177%,26.666668%,23.529412%);fill-opacity:1;"
       d="M 1.023438 5.226562 C 1.203125 5.226562 1.382812 5.226562 1.5625 5.226562 C 2.425781 5.226562 3.289062 5.226562 4.148438 5.226562 C 4.148438 9.894531 4.148438 14.566406 4.148438 19.238281 C 4.148438 19.417969 4.148438 19.597656 4.148438 19.773438 C 3.109375 19.773438 2.066406 19.773438 1.023438 19.773438 C 1.160156 19.964844 1.84375 19.789062 2.101562 19.824219 C 2.355469 19.859375 2.957031 19.84375 3.222656 19.824219 C 3.488281 19.804688 4.125 19.984375 4.199219 19.679688 C 4.273438 19.371094 4.167969 18.945312 4.199219 18.601562 C 4.230469 18.261719 4.183594 17.839844 4.199219 17.480469 C 4.214844 17.121094 4.191406 16.722656 4.199219 16.359375 C 4.207031 15.992188 4.195312 15.601562 4.199219 15.234375 C 4.203125 14.867188 4.199219 14.527344 4.199219 14.160156 C 4.199219 13.792969 4.199219 13.40625 4.199219 13.039062 C 4.199219 12.667969 4.199219 12.285156 4.199219 11.914062 C 4.199219 11.542969 4.203125 11.160156 4.199219 10.789062 C 4.195312 10.421875 4.203125 10.082031 4.199219 9.71875 C 4.195312 9.351562 4.210938 8.957031 4.199219 8.59375 C 4.1875 8.230469 4.222656 7.820312 4.199219 7.46875 C 4.175781 7.121094 4.25 6.671875 4.199219 6.347656 C 4.148438 6.023438 4.316406 5.546875 4.195312 5.277344 C 4.074219 5.011719 3.433594 5.210938 3.171875 5.175781 C 2.914062 5.140625 2.300781 5.152344 2.050781 5.175781 C 1.800781 5.199219 1.152344 5.042969 1.023438 5.226562 Z M 1.023438 5.226562 "
       id="path52" />
    <path
       style=" stroke:none;fill-rule:nonzero;fill:rgb(33.725491%,27.450982%,24.313726%);fill-opacity:1;"
       d="M 10.109375 5.226562 C 10.464844 5.09375 10.945312 5.28125 11.328125 5.226562 C 11.710938 5.167969 12.15625 5.246094 12.546875 5.226562 C 12.945312 5.203125 13.371094 5.226562 13.769531 5.226562 C 13.792969 5.226562 13.820312 5.226562 13.820312 5.226562 C 13.605469 5.003906 12.929688 5.230469 12.597656 5.175781 C 12.265625 5.121094 11.683594 5.167969 11.328125 5.175781 C 10.972656 5.183594 10.414062 5.082031 10.109375 5.226562 Z M 10.109375 5.226562 "
       id="path53" />
    <path
       style=" stroke:none;fill-rule:nonzero;fill:rgb(30.980393%,24.705882%,22.352941%);fill-opacity:1;"
       d="M 23.976562 19.773438 C 23.976562 19.777344 23.925781 19.773438 23.925781 19.773438 C 22.898438 19.773438 21.875 19.773438 20.851562 19.773438 C 20.851562 14.925781 20.851562 10.074219 20.851562 5.226562 C 21.011719 5.226562 21.175781 5.226562 21.335938 5.226562 C 22.199219 5.226562 23.0625 5.226562 23.925781 5.226562 C 23.949219 5.226562 23.976562 5.226562 23.976562 5.226562 C 23.726562 4.96875 23.121094 5.285156 22.753906 5.175781 C 22.386719 5.066406 21.964844 5.277344 21.53125 5.175781 C 21.101562 5.074219 20.6875 5.222656 20.800781 5.710938 C 20.914062 6.203125 20.753906 6.484375 20.800781 6.933594 C 20.847656 7.382812 20.777344 7.773438 20.800781 8.203125 C 20.824219 8.632812 20.789062 9.003906 20.800781 9.421875 C 20.8125 9.84375 20.796875 10.226562 20.800781 10.644531 C 20.804688 11.0625 20.800781 11.496094 20.800781 11.914062 C 20.800781 12.332031 20.800781 12.71875 20.800781 13.132812 C 20.800781 13.550781 20.804688 13.988281 20.800781 14.40625 C 20.796875 14.820312 20.8125 15.207031 20.800781 15.625 C 20.789062 16.042969 20.820312 16.414062 20.800781 16.84375 C 20.78125 17.273438 20.847656 17.667969 20.800781 18.117188 C 20.753906 18.5625 20.90625 18.84375 20.800781 19.335938 C 20.695312 19.828125 21.171875 19.90625 21.582031 19.824219 C 21.992188 19.742188 22.445312 19.921875 22.804688 19.824219 C 23.160156 19.726562 23.738281 20.023438 23.976562 19.773438 Z M 23.976562 19.773438 "
       id="path54" />
    <path
       style="stroke:none;fill-rule:nonzero;fill:#c9864a;fill-opacity:1"
       d="M 1.023438 19.773438 C 2.066406 19.773438 3.109375 19.773438 4.148438 19.773438 C 4.148438 19.597656 4.148438 19.417969 4.148438 19.238281 C 3.46875 19.128906 2.765625 18.695312 2.390625 18.210938 C 2.230469 18.003906 2.0625 17.957031 2.101562 17.625 C 2.074219 17.671875 2.050781 17.742188 2 17.773438 C 1.203125 15.898438 1.652344 13.804688 1.5625 11.71875 C 1.472656 9.632812 1.628906 7.332031 1.5625 5.226562 C 1.382812 5.226562 1.203125 5.226562 1.023438 5.226562 C 0.859375 5.460938 1.105469 6.003906 1.023438 6.296875 C 0.945312 6.59375 1.0625 7 1.023438 7.324219 C 0.988281 7.648438 1.039062 8.011719 1.023438 8.351562 C 1.011719 8.6875 1.03125 9.082031 1.023438 9.421875 C 1.019531 9.765625 1.027344 10.105469 1.023438 10.449219 C 1.023438 10.792969 1.027344 11.128906 1.023438 11.476562 C 1.023438 11.820312 1.023438 12.152344 1.023438 12.5 C 1.023438 12.847656 1.023438 13.226562 1.023438 13.574219 C 1.027344 13.921875 1.023438 14.253906 1.023438 14.601562 C 1.027344 14.945312 1.019531 15.28125 1.023438 15.625 C 1.03125 15.96875 1.011719 16.363281 1.023438 16.699219 C 1.039062 17.035156 0.992188 17.402344 1.023438 17.726562 C 1.058594 18.046875 0.953125 18.457031 1.023438 18.75 C 1.097656 19.042969 0.863281 19.546875 1.023438 19.773438 Z M 1.023438 19.773438 "
       id="path55" />
    <path
       style="stroke:none;fill-rule:nonzero;fill:#df9967;fill-opacity:1"
       d="M 2.101562 17.625 C 2.152344 17.183594 2.769531 17.007812 3.039062 17.417969 C 3.308594 17.828125 2.886719 18.363281 2.390625 18.210938 C 2.765625 18.695312 3.46875 19.128906 4.148438 19.238281 C 4.148438 14.566406 4.148438 9.894531 4.148438 5.226562 C 3.289062 5.226562 2.425781 5.226562 1.5625 5.226562 C 1.628906 7.332031 1.472656 9.632812 1.5625 11.71875 C 1.652344 13.804688 1.203125 15.898438 2 17.773438 C 2.050781 17.742188 2.074219 17.671875 2.101562 17.625 M 2.78125 6.789062 C 3.398438 6.9375 3.082031 8.019531 2.457031 7.796875 C 1.832031 7.574219 2.089844 6.617188 2.78125 6.789062 M 2.734375 11.960938 C 3.34375 12.082031 3.164062 13.175781 2.507812 13.019531 C 1.851562 12.867188 2.066406 11.832031 2.734375 11.960938 Z M 2.734375 11.960938 "
       id="path56" />
    <path
       style="stroke:none;fill-rule:nonzero;fill:#c9864a;fill-opacity:1"
       d="M 8.59375 5.226562 C 7.46875 5.226562 6.347656 5.226562 5.226562 5.226562 C 5.226562 6.347656 5.226562 7.46875 5.226562 8.59375 C 6.363281 7.496094 7.496094 6.363281 8.59375 5.226562 Z M 8.59375 5.226562 "
       id="path57" />
    <path
       style="stroke:none;fill-rule:nonzero;fill:#c9864a;fill-opacity:1"
       d="M 13.820312 5.226562 C 13.820312 5.226562 13.792969 5.226562 13.769531 5.226562 C 13.054688 6.246094 11.917969 6.976562 11.097656 7.921875 C 10.273438 8.867188 9.269531 9.6875 8.410156 10.609375 C 7.550781 11.527344 6.597656 12.394531 5.710938 13.28125 C 5.660156 12.347656 5.78125 11.105469 5.710938 10.203125 C 5.644531 9.304688 6.488281 8.960938 6.996094 8.363281 C 7.5 7.765625 8.046875 7.363281 8.558594 6.800781 C 9.066406 6.234375 9.621094 5.792969 10.109375 5.226562 C 9.703125 5.570312 9.363281 5.960938 8.972656 6.335938 C 8.582031 6.710938 8.25 7.078125 7.847656 7.457031 C 7.449219 7.839844 7.15625 8.191406 6.726562 8.582031 C 6.296875 8.972656 6.09375 9.292969 5.601562 9.703125 C 5.109375 10.117188 5.207031 10.898438 5.226562 11.570312 C 5.242188 12.246094 5.210938 13.128906 5.226562 13.820312 C 5.65625 13.4375 6.070312 12.992188 6.480469 12.585938 C 6.894531 12.179688 7.296875 11.773438 7.703125 11.363281 C 8.109375 10.957031 8.519531 10.554688 8.921875 10.144531 C 9.328125 9.730469 9.773438 9.316406 10.167969 8.898438 C 10.5625 8.484375 11.015625 8.101562 11.390625 7.679688 C 11.761719 7.253906 12.28125 6.902344 12.609375 6.457031 C 12.9375 6.015625 13.609375 5.726562 13.820312 5.226562 Z M 13.820312 5.226562 "
       id="path58" />
    <path
       style="stroke:none;fill-rule:nonzero;fill:#df9967;fill-opacity:1"
       d="M 13.769531 5.226562 C 13.371094 5.226562 12.945312 5.203125 12.546875 5.226562 C 12.15625 5.246094 11.710938 5.167969 11.328125 5.226562 C 10.945312 5.28125 10.464844 5.09375 10.109375 5.226562 C 9.621094 5.792969 9.066406 6.234375 8.558594 6.800781 C 8.046875 7.363281 7.5 7.765625 6.996094 8.363281 C 6.488281 8.960938 5.644531 9.304688 5.710938 10.203125 C 5.78125 11.105469 5.660156 12.347656 5.710938 13.28125 C 6.597656 12.394531 7.550781 11.527344 8.410156 10.609375 C 9.269531 9.6875 10.273438 8.867188 11.097656 7.921875 C 11.917969 6.976562 13.054688 6.246094 13.769531 5.226562 Z M 13.769531 5.226562 "
       id="path59" />
    <path
       style="stroke:none;fill-rule:nonzero;fill:#c9864a;fill-opacity:1"
       d="M 5.226562 18.992188 C 9.832031 14.429688 14.429688 9.828125 18.992188 5.226562 C 18.703125 5.058594 18.113281 5.292969 17.773438 5.226562 C 17.433594 5.15625 16.898438 5.238281 16.554688 5.226562 C 16.207031 5.210938 15.695312 5.1875 15.382812 5.226562 C 15.070312 5.265625 14.972656 5.640625 14.734375 5.796875 C 14.496094 5.957031 14.363281 6.203125 14.148438 6.382812 C 13.933594 6.566406 13.746094 6.804688 13.539062 6.996094 C 13.332031 7.1875 13.15625 7.382812 12.953125 7.582031 C 12.75 7.777344 12.542969 7.992188 12.339844 8.191406 C 12.140625 8.390625 11.957031 8.578125 11.753906 8.777344 C 11.554688 8.976562 11.34375 9.1875 11.144531 9.386719 C 10.945312 9.585938 10.757812 9.773438 10.558594 9.972656 C 10.359375 10.171875 10.148438 10.382812 9.949219 10.582031 C 9.75 10.78125 9.5625 10.96875 9.363281 11.167969 C 9.164062 11.371094 8.953125 11.578125 8.753906 11.78125 C 8.554688 11.980469 8.363281 12.164062 8.167969 12.367188 C 7.96875 12.566406 7.753906 12.773438 7.554688 12.976562 C 7.359375 13.179688 7.164062 13.355469 6.96875 13.5625 C 6.777344 13.769531 6.546875 13.957031 6.359375 14.171875 C 6.175781 14.386719 5.941406 14.523438 5.773438 14.757812 C 5.605469 14.992188 5.234375 15.105469 5.226562 15.429688 C 5.214844 15.753906 5.203125 16.25 5.226562 16.601562 C 5.246094 16.953125 5.15625 17.480469 5.226562 17.820312 C 5.289062 18.164062 5.0625 18.707031 5.226562 18.992188 Z M 5.226562 18.992188 "
       id="path60" />
    <path
       style=" stroke:none;fill-rule:nonzero;fill:rgb(38.039216%,29.411766%,26.274511%);fill-opacity:1;"
       d="M 5.226562 18.992188 C 5.25 19.039062 5.71875 18.589844 5.847656 18.445312 C 5.976562 18.300781 6.308594 17.992188 6.480469 17.808594 C 6.65625 17.628906 6.921875 17.375 7.117188 17.175781 C 7.3125 16.976562 7.546875 16.746094 7.75 16.539062 C 7.953125 16.335938 8.179688 16.113281 8.386719 15.90625 C 8.59375 15.699219 8.789062 15.503906 8.996094 15.296875 C 9.203125 15.085938 9.421875 14.871094 9.632812 14.660156 C 9.839844 14.449219 10.054688 14.234375 10.265625 14.027344 C 10.476562 13.816406 10.691406 13.601562 10.902344 13.390625 C 11.109375 13.179688 11.328125 12.964844 11.535156 12.757812 C 11.746094 12.546875 11.9375 12.355469 12.144531 12.144531 C 12.355469 11.9375 12.570312 11.722656 12.78125 11.511719 C 12.992188 11.300781 13.203125 11.085938 13.414062 10.875 C 13.625 10.664062 13.839844 10.453125 14.050781 10.242188 C 14.261719 10.03125 14.476562 9.816406 14.683594 9.605469 C 14.894531 9.398438 15.109375 9.179688 15.320312 8.972656 C 15.527344 8.765625 15.722656 8.566406 15.929688 8.363281 C 16.136719 8.15625 16.359375 7.929688 16.566406 7.726562 C 16.769531 7.523438 17 7.285156 17.199219 7.09375 C 17.398438 6.898438 17.652344 6.632812 17.835938 6.457031 C 18.015625 6.28125 18.324219 5.953125 18.46875 5.824219 C 18.613281 5.691406 19.039062 5.25 18.992188 5.226562 C 14.429688 9.828125 9.832031 14.429688 5.226562 18.992188 Z M 5.226562 18.992188 "
       id="path61" />
    <path
       style="stroke:none;fill-rule:nonzero;fill:#c9864a;fill-opacity:1"
       d="M 23.925781 19.773438 C 23.910156 19.582031 23.925781 19.382812 23.925781 19.1875 C 23.234375 19.183594 22.578125 18.675781 22.21875 18.210938 C 22.113281 18.082031 21.976562 17.96875 21.875 17.820312 C 21.101562 16.695312 21.367188 15.410156 21.335938 14.015625 C 21.308594 12.617188 21.351562 11.046875 21.335938 9.617188 C 21.324219 8.191406 21.347656 6.664062 21.335938 5.226562 C 21.175781 5.226562 21.011719 5.226562 20.851562 5.226562 C 20.851562 10.074219 20.851562 14.925781 20.851562 19.773438 C 21.875 19.773438 22.898438 19.773438 23.925781 19.773438 Z M 23.925781 19.773438 "
       id="path62" />
    <path
       style="stroke:none;fill-rule:nonzero;fill:#df9967;fill-opacity:1"
       d="M 21.875 17.820312 C 21.792969 17.359375 22.398438 16.945312 22.765625 17.324219 C 23.128906 17.699219 22.761719 18.378906 22.21875 18.210938 C 22.578125 18.675781 23.234375 19.183594 23.925781 19.1875 C 23.925781 17.644531 23.902344 16.097656 23.925781 14.550781 C 23.949219 13.003906 23.863281 11.460938 23.925781 9.914062 C 23.988281 8.367188 23.785156 6.765625 23.925781 5.226562 C 23.0625 5.226562 22.199219 5.226562 21.335938 5.226562 C 21.347656 6.664062 21.324219 8.191406 21.335938 9.617188 C 21.351562 11.046875 21.308594 12.617188 21.335938 14.015625 C 21.367188 15.410156 21.101562 16.695312 21.875 17.820312 M 22.609375 6.789062 C 23.207031 6.96875 22.832031 8.0625 22.214844 7.765625 C 21.59375 7.472656 21.945312 6.585938 22.609375 6.789062 M 22.507812 11.960938 C 23.148438 12.085938 22.933594 13.175781 22.28125 13.019531 C 21.632812 12.867188 21.859375 11.835938 22.507812 11.960938 Z M 22.507812 11.960938 "
       id="path63" />
    <path
       style=" stroke:none;fill-rule:nonzero;fill:rgb(54.11765%,41.568628%,36.470589%);fill-opacity:1;"
       d="M 23.925781 19.1875 C 23.925781 19.382812 23.910156 19.582031 23.925781 19.773438 C 23.925781 19.773438 23.976562 19.777344 23.976562 19.773438 C 24.121094 18.171875 23.933594 16.5 23.976562 14.890625 C 24.015625 13.285156 24.011719 11.664062 23.976562 10.058594 C 23.9375 8.453125 24.117188 6.820312 23.976562 5.226562 C 23.976562 5.226562 23.949219 5.226562 23.925781 5.226562 C 23.785156 6.765625 23.988281 8.367188 23.925781 9.914062 C 23.863281 11.460938 23.949219 13.003906 23.925781 14.550781 C 23.902344 16.097656 23.925781 17.644531 23.925781 19.1875 Z M 23.925781 19.1875 "
       id="path64" />
    <path
       style=" stroke:none;fill-rule:nonzero;fill:rgb(40.784314%,32.156864%,28.627452%);fill-opacity:1;"
       d="M 5.957031 19.773438 C 5.96875 19.789062 6.007812 19.773438 6.007812 19.773438 C 6.140625 19.585938 6.335938 19.445312 6.492188 19.289062 C 7.375 18.40625 8.222656 17.507812 9.117188 16.636719 C 10.015625 15.769531 10.882812 14.84375 11.78125 13.976562 C 12.679688 13.109375 13.53125 12.167969 14.441406 11.316406 C 15.351562 10.464844 16.164062 9.46875 17.101562 8.65625 C 18.039062 7.839844 18.765625 6.710938 19.773438 6.007812 C 19.773438 5.980469 19.773438 5.957031 19.773438 5.957031 C 19.261719 6.171875 18.949219 6.878906 18.492188 7.214844 C 18.039062 7.550781 17.683594 8.078125 17.25 8.460938 C 16.8125 8.839844 16.40625 9.328125 15.980469 9.730469 C 15.550781 10.132812 15.15625 10.5625 14.734375 10.972656 C 14.3125 11.386719 13.882812 11.828125 13.464844 12.242188 C 13.046875 12.660156 12.636719 13.070312 12.21875 13.488281 C 11.804688 13.90625 11.363281 14.335938 10.949219 14.757812 C 10.539062 15.179688 10.105469 15.578125 9.703125 16.003906 C 9.304688 16.429688 8.816406 16.839844 8.433594 17.273438 C 8.054688 17.707031 7.523438 18.066406 7.191406 18.519531 C 6.855469 18.96875 6.171875 19.265625 5.957031 19.773438 Z M 5.957031 19.773438 "
       id="path65" />
    <path
       style=" stroke:none;fill-rule:nonzero;fill:rgb(28.627452%,23.137255%,21.176471%);fill-opacity:1;"
       d="M 19.773438 6.007812 C 19.773438 6.957031 19.769531 8.320312 19.773438 9.226562 C 19.78125 10.140625 18.878906 10.46875 18.371094 11.097656 C 17.863281 11.722656 17.261719 12.152344 16.734375 12.730469 C 16.210938 13.3125 15.660156 13.78125 15.125 14.34375 C 14.589844 14.902344 14.027344 15.425781 13.488281 15.980469 C 12.953125 16.53125 12.390625 17.066406 11.851562 17.613281 C 11.316406 18.164062 10.769531 18.671875 10.242188 19.226562 C 9.867188 19.578125 9.710938 19.84375 9.179688 19.773438 C 8.648438 19.707031 8.148438 19.800781 7.617188 19.773438 C 7.085938 19.75 6.539062 19.773438 6.007812 19.773438 C 6.007812 19.773438 5.96875 19.789062 5.957031 19.773438 C 6.164062 19.992188 6.855469 19.773438 7.179688 19.824219 C 7.5 19.875 8.109375 19.839844 8.445312 19.824219 C 8.785156 19.808594 9.40625 19.917969 9.703125 19.8125 C 10.003906 19.707031 10.089844 19.339844 10.339844 19.175781 C 10.589844 19.015625 10.746094 18.734375 10.972656 18.542969 C 11.203125 18.351562 11.390625 18.109375 11.609375 17.90625 C 11.828125 17.707031 12.027344 17.480469 12.242188 17.273438 C 12.460938 17.066406 12.664062 16.847656 12.878906 16.636719 C 13.089844 16.429688 13.300781 16.214844 13.511719 16.003906 C 13.726562 15.792969 13.9375 15.578125 14.148438 15.367188 C 14.359375 15.160156 14.546875 14.96875 14.757812 14.757812 C 14.96875 14.546875 15.183594 14.335938 15.394531 14.125 C 15.601562 13.914062 15.816406 13.699219 16.027344 13.488281 C 16.238281 13.277344 16.453125 13.066406 16.664062 12.855469 C 16.871094 12.640625 17.089844 12.433594 17.296875 12.21875 C 17.503906 12.003906 17.730469 11.804688 17.933594 11.585938 C 18.132812 11.367188 18.378906 11.179688 18.566406 10.949219 C 18.753906 10.71875 19.039062 10.566406 19.203125 10.316406 C 19.363281 10.066406 19.746094 9.980469 19.824219 9.667969 C 19.902344 9.355469 19.8125 8.742188 19.824219 8.398438 C 19.835938 8.054688 19.871094 7.453125 19.824219 7.128906 C 19.777344 6.804688 19.992188 6.164062 19.773438 5.957031 C 19.773438 5.957031 19.773438 5.980469 19.773438 6.007812 Z M 19.773438 6.007812 "
       id="path66" />
    <path
       style="stroke:none;fill-rule:nonzero;fill:#df9967;fill-opacity:1"
       d="M 6.492188 19.289062 C 7.058594 19.117188 7.777344 19.417969 8.351562 19.289062 C 8.921875 19.15625 9.671875 19.484375 10.203125 19.238281 C 10.769531 18.671875 11.316406 18.164062 11.851562 17.613281 C 12.390625 17.066406 12.953125 16.53125 13.488281 15.980469 C 14.027344 15.425781 14.589844 14.902344 15.125 14.34375 C 15.660156 13.78125 16.210938 13.3125 16.734375 12.730469 C 17.261719 12.152344 17.863281 11.722656 18.371094 11.097656 C 18.878906 10.46875 19.78125 10.140625 19.773438 9.226562 C 19.769531 8.320312 19.773438 6.957031 19.773438 6.007812 C 18.765625 6.710938 18.039062 7.839844 17.101562 8.65625 C 16.164062 9.46875 15.351562 10.464844 14.441406 11.316406 C 13.53125 12.167969 12.679688 13.109375 11.78125 13.976562 C 10.882812 14.84375 10.015625 15.769531 9.117188 16.636719 C 8.222656 17.507812 7.375 18.40625 6.492188 19.289062 Z M 6.492188 19.289062 "
       id="path67" />
    <path
       style=" stroke:none;fill-rule:nonzero;fill:rgb(14.901961%,12.941177%,13.333334%);fill-opacity:1;"
       d="M 2.78125 6.789062 C 2.089844 6.617188 1.832031 7.574219 2.457031 7.796875 C 3.082031 8.019531 3.398438 6.9375 2.78125 6.789062 Z M 2.78125 6.789062 "
       id="path68" />
    <path
       style=" stroke:none;fill-rule:nonzero;fill:rgb(14.901961%,12.941177%,13.333334%);fill-opacity:1;"
       d="M 22.609375 6.789062 C 21.945312 6.585938 21.59375 7.472656 22.214844 7.765625 C 22.832031 8.0625 23.207031 6.96875 22.609375 6.789062 Z M 22.609375 6.789062 "
       id="path69" />
    <path
       style="stroke:none;fill-rule:nonzero;fill:#c9864a;fill-opacity:1"
       d="M 19.773438 11.179688 C 16.898438 14.019531 14.023438 16.894531 11.179688 19.773438 C 12.09375 19.890625 13.164062 19.617188 14.0625 19.773438 C 14.960938 19.929688 15.386719 19.320312 15.929688 18.761719 C 16.472656 18.203125 16.808594 17.875 17.347656 17.347656 C 17.882812 16.816406 18.21875 16.441406 18.785156 15.90625 C 19.355469 15.371094 19.9375 14.90625 19.773438 14.015625 C 19.613281 13.121094 19.898438 12.085938 19.773438 11.179688 Z M 19.773438 11.179688 "
       id="path70" />
    <path
       style=" stroke:none;fill-rule:nonzero;fill:rgb(14.901961%,12.941177%,13.333334%);fill-opacity:1;"
       d="M 2.734375 11.960938 C 2.066406 11.832031 1.851562 12.867188 2.507812 13.019531 C 3.164062 13.175781 3.34375 12.082031 2.734375 11.960938 Z M 2.734375 11.960938 "
       id="path71" />
    <path
       style=" stroke:none;fill-rule:nonzero;fill:rgb(14.901961%,12.941177%,13.333334%);fill-opacity:1;"
       d="M 22.507812 11.960938 C 21.859375 11.835938 21.632812 12.867188 22.28125 13.019531 C 22.933594 13.175781 23.148438 12.085938 22.507812 11.960938 Z M 22.507812 11.960938 "
       id="path72" />
    <path
       style="stroke:none;fill-rule:nonzero;fill:#c9864a;fill-opacity:1"
       d="M 19.824219 16.359375 C 18.636719 17.421875 17.425781 18.636719 16.359375 19.824219 C 16.859375 19.863281 17.261719 19.769531 17.773438 19.824219 C 18.285156 19.878906 18.582031 19.71875 19.140625 19.824219 C 19.699219 19.929688 19.921875 19.632812 19.824219 19.09375 C 19.726562 18.546875 19.875 18.226562 19.824219 17.726562 C 19.773438 17.222656 19.863281 16.847656 19.824219 16.359375 M 19.773438 19.289062 C 19.773438 19.449219 19.773438 19.613281 19.773438 19.773438 C 18.652344 19.773438 17.53125 19.773438 16.40625 19.773438 C 16.5625 19.582031 16.75 19.390625 16.945312 19.238281 C 17.882812 18.296875 18.800781 17.308594 19.773438 16.40625 C 19.773438 17.367188 19.773438 18.328125 19.773438 19.289062 Z M 19.773438 19.289062 "
       id="path73" />
    <path
       style="stroke:none;fill-rule:nonzero;fill:#df9967;fill-opacity:1"
       d="M 16.945312 19.238281 C 17.84375 19.351562 18.839844 19.253906 19.773438 19.289062 C 19.773438 18.328125 19.773438 17.367188 19.773438 16.40625 C 18.800781 17.308594 17.882812 18.296875 16.945312 19.238281 Z M 16.945312 19.238281 "
       id="path74" />
    <path
       style=" stroke:none;fill-rule:nonzero;fill:rgb(14.901961%,12.941177%,13.333334%);fill-opacity:1;"
       d="M 2.101562 17.625 C 2.0625 17.957031 2.230469 18.003906 2.390625 18.210938 C 2.886719 18.363281 3.308594 17.828125 3.039062 17.417969 C 2.769531 17.007812 2.152344 17.183594 2.101562 17.625 Z M 2.101562 17.625 "
       id="path75" />
    <path
       style=" stroke:none;fill-rule:nonzero;fill:rgb(14.901961%,12.941177%,12.941177%);fill-opacity:1;"
       d="M 21.875 17.820312 C 21.976562 17.96875 22.113281 18.082031 22.21875 18.210938 C 22.761719 18.378906 23.128906 17.699219 22.765625 17.324219 C 22.398438 16.945312 21.792969 17.359375 21.875 17.820312 Z M 21.875 17.820312 "
       id="path76" />
    <path
       style="stroke:none;fill-rule:nonzero;fill:#c9864a;fill-opacity:1"
       d="M 6.492188 19.289062 C 6.335938 19.445312 6.140625 19.585938 6.007812 19.773438 C 6.539062 19.773438 7.085938 19.75 7.617188 19.773438 C 8.148438 19.800781 8.648438 19.707031 9.179688 19.773438 C 9.710938 19.84375 9.867188 19.578125 10.203125 19.238281 C 9.671875 19.484375 8.921875 19.15625 8.351562 19.289062 C 7.777344 19.417969 7.058594 19.117188 6.492188 19.289062 Z M 6.492188 19.289062 "
       id="path77" />
    <path
       style="stroke:none;fill-rule:nonzero;fill:#c9864a;fill-opacity:1"
       d="M 19.773438 19.289062 C 18.839844 19.253906 17.84375 19.351562 16.945312 19.238281 C 16.75 19.390625 16.5625 19.582031 16.40625 19.773438 C 17.53125 19.773438 18.652344 19.773438 19.773438 19.773438 C 19.773438 19.613281 19.773438 19.449219 19.773438 19.289062 Z M 19.773438 19.289062 "
       id="path78" />
    <path
       style=" stroke:none;fill-rule:nonzero;fill:rgb(33.333334%,27.058825%,23.921569%);fill-opacity:1;"
       d="M 1.074219 20.851562 C 1.160156 20.789062 1.503906 20.851562 1.609375 20.851562 C 9.050781 20.851562 16.488281 20.851562 23.925781 20.851562 C 23.949219 20.851562 23.976562 20.851562 23.976562 20.851562 C 23.742188 20.609375 23.054688 20.878906 22.703125 20.800781 C 22.355469 20.722656 21.828125 20.835938 21.4375 20.800781 C 21.046875 20.765625 20.574219 20.816406 20.164062 20.800781 C 19.757812 20.785156 19.3125 20.808594 18.898438 20.800781 C 18.480469 20.792969 18.050781 20.804688 17.625 20.800781 C 17.203125 20.796875 16.785156 20.800781 16.359375 20.800781 C 15.929688 20.800781 15.464844 20.800781 15.039062 20.800781 C 14.613281 20.800781 14.195312 20.800781 13.769531 20.800781 C 13.34375 20.800781 12.925781 20.800781 12.5 20.800781 C 12.074219 20.800781 11.65625 20.800781 11.230469 20.800781 C 10.804688 20.800781 10.386719 20.800781 9.960938 20.800781 C 9.535156 20.800781 9.117188 20.800781 8.691406 20.800781 C 8.265625 20.800781 7.796875 20.796875 7.375 20.800781 C 6.949219 20.804688 6.523438 20.792969 6.101562 20.800781 C 5.683594 20.808594 5.242188 20.785156 4.835938 20.800781 C 4.425781 20.816406 3.957031 20.765625 3.5625 20.800781 C 3.171875 20.835938 2.648438 20.726562 2.296875 20.800781 C 1.941406 20.875 1.308594 20.613281 1.074219 20.851562 Z M 1.074219 20.851562 "
       id="path79" />
    <path
       style="stroke:none;fill-rule:nonzero;fill:#c9864a;fill-opacity:1"
       d="M 23.976562 20.851562 C 23.976562 20.851562 23.949219 20.851562 23.925781 20.851562 C 23.847656 21.703125 23.984375 22.578125 23.925781 23.4375 C 22.140625 23.425781 20.335938 23.453125 18.554688 23.4375 C 16.773438 23.421875 14.902344 23.464844 13.132812 23.4375 C 11.367188 23.410156 9.445312 23.492188 7.714844 23.4375 C 5.984375 23.382812 4.308594 23.78125 2.882812 22.851562 C 2.695312 22.820312 2.382812 22.984375 2.234375 22.765625 C 2.085938 22.546875 2.03125 22.359375 2.148438 22.117188 C 2.125 21.984375 1.90625 21.707031 1.816406 21.570312 C 1.730469 21.433594 1.71875 20.929688 1.609375 20.851562 C 1.503906 20.851562 1.160156 20.789062 1.074219 20.851562 C 0.84375 21.078125 1.09375 21.777344 1.023438 22.117188 C 0.957031 22.460938 1.042969 23.023438 1.027344 23.386719 C 1.007812 23.75 1.339844 23.996094 1.710938 23.976562 C 2.078125 23.953125 2.582031 23.984375 2.976562 23.976562 C 3.375 23.964844 3.835938 23.980469 4.25 23.976562 C 4.660156 23.96875 5.101562 23.976562 5.515625 23.976562 C 5.9375 23.972656 6.367188 23.976562 6.789062 23.976562 C 7.207031 23.972656 7.632812 23.976562 8.054688 23.976562 C 8.480469 23.972656 8.902344 23.976562 9.328125 23.976562 C 9.75 23.976562 10.171875 23.976562 10.59375 23.976562 C 11.019531 23.976562 11.441406 23.976562 11.867188 23.976562 C 12.289062 23.976562 12.710938 23.976562 13.132812 23.976562 C 13.558594 23.976562 13.980469 23.976562 14.40625 23.976562 C 14.828125 23.976562 15.25 23.976562 15.671875 23.976562 C 16.097656 23.976562 16.519531 23.976562 16.945312 23.976562 C 17.367188 23.976562 17.792969 23.972656 18.210938 23.976562 C 18.632812 23.976562 19.0625 23.972656 19.484375 23.976562 C 19.902344 23.976562 20.335938 23.972656 20.75 23.976562 C 21.164062 23.976562 21.617188 23.972656 22.023438 23.976562 C 22.425781 23.976562 22.910156 23.96875 23.289062 23.976562 C 23.671875 23.980469 23.964844 23.78125 23.976562 23.390625 C 23.984375 22.996094 23.984375 22.523438 23.976562 22.117188 C 23.964844 21.714844 24.011719 21.257812 23.976562 20.851562 Z M 23.976562 20.851562 "
       id="path80" />
    <path
       style="stroke:none;fill-rule:nonzero;fill:#df9967;fill-opacity:1"
       d="M 2.148438 22.117188 C 2.53125 21.347656 3.652344 22.46875 2.882812 22.851562 C 4.308594 23.78125 5.984375 23.382812 7.714844 23.4375 C 9.445312 23.492188 11.367188 23.410156 13.132812 23.4375 C 14.902344 23.464844 16.773438 23.421875 18.554688 23.4375 C 20.335938 23.453125 22.140625 23.425781 23.925781 23.4375 C 23.984375 22.578125 23.847656 21.703125 23.925781 20.851562 C 16.488281 20.851562 9.050781 20.851562 1.609375 20.851562 C 1.71875 20.929688 1.730469 21.433594 1.816406 21.570312 C 1.90625 21.707031 2.125 21.984375 2.148438 22.117188 M 7.421875 21.875 C 8.050781 22 7.839844 23.066406 7.179688 22.898438 C 6.515625 22.734375 6.765625 21.746094 7.421875 21.875 M 12.648438 21.875 C 13.296875 22.011719 13.007812 23.109375 12.351562 22.898438 C 11.699219 22.691406 11.996094 21.738281 12.648438 21.875 M 17.871094 21.875 C 18.5 22.007812 18.195312 23.136719 17.546875 22.882812 C 16.894531 22.632812 17.242188 21.742188 17.871094 21.875 M 22.558594 21.875 C 23.1875 22.007812 22.882812 23.136719 22.234375 22.882812 C 21.582031 22.632812 21.929688 21.742188 22.558594 21.875 Z M 22.558594 21.875 "
       id="path81" />
    <path
       style=" stroke:none;fill-rule:nonzero;fill:rgb(14.901961%,12.941177%,13.333334%);fill-opacity:1;"
       d="M 2.148438 22.117188 C 2.03125 22.359375 2.085938 22.546875 2.234375 22.765625 C 2.382812 22.984375 2.695312 22.820312 2.882812 22.851562 C 3.652344 22.46875 2.53125 21.347656 2.148438 22.117188 Z M 2.148438 22.117188 "
       id="path82" />
    <path
       style=" stroke:none;fill-rule:nonzero;fill:rgb(14.901961%,12.941177%,13.333334%);fill-opacity:1;"
       d="M 7.421875 21.875 C 6.765625 21.746094 6.515625 22.734375 7.179688 22.898438 C 7.839844 23.066406 8.050781 22 7.421875 21.875 Z M 7.421875 21.875 "
       id="path83" />
    <path
       style=" stroke:none;fill-rule:nonzero;fill:rgb(14.901961%,12.941177%,13.333334%);fill-opacity:1;"
       d="M 12.648438 21.875 C 11.996094 21.738281 11.699219 22.691406 12.351562 22.898438 C 13.007812 23.109375 13.296875 22.011719 12.648438 21.875 Z M 12.648438 21.875 "
       id="path84" />
    <path
       style=" stroke:none;fill-rule:nonzero;fill:rgb(14.901961%,12.941177%,13.333334%);fill-opacity:1;"
       d="M 17.871094 21.875 C 17.242188 21.742188 16.894531 22.632812 17.546875 22.882812 C 18.195312 23.136719 18.5 22.007812 17.871094 21.875 Z M 17.871094 21.875 "
       id="path85" />
    <path
       style=" stroke:none;fill-rule:nonzero;fill:rgb(14.901961%,12.941177%,13.333334%);fill-opacity:1;"
       d="M 22.558594 21.875 C 21.929688 21.742188 21.582031 22.632812 22.234375 22.882812 C 22.882812 23.136719 23.1875 22.007812 22.558594 21.875 Z M 22.558594 21.875 "
       id="path86" />
  </g>
</svg>
